<svg width="24" height="25" viewBox="0 0 24 25" fill="none" xmlns="http://www.w3.org/2000/svg">
<path d="M12 22.7863C6.07 22.7863 1.25 17.9663 1.25 12.0363C1.25 6.10626 6.07 1.28625 12 1.28625C17.93 1.28625 22.75 6.10626 22.75 12.0363C22.75 17.9663 17.93 22.7863 12 22.7863ZM12 2.78625C6.9 2.78625 2.75 6.93625 2.75 12.0363C2.75 17.1363 6.9 21.2863 12 21.2863C17.1 21.2863 21.25 17.1363 21.25 12.0363C21.25 6.93625 17.1 2.78625 12 2.78625Z" fill="#79747E"/>
<path d="M16 12.7863H8C7.59 12.7863 7.25 12.4463 7.25 12.0363C7.25 11.6263 7.59 11.2863 8 11.2863H16C16.41 11.2863 16.75 11.6263 16.75 12.0363C16.75 12.4463 16.41 12.7863 16 12.7863Z" fill="#79747E"/>
<path d="M12 16.7863C11.59 16.7863 11.25 16.4463 11.25 16.0363V8.03625C11.25 7.62625 11.59 7.28625 12 7.28625C12.41 7.28625 12.75 7.62625 12.75 8.03625V16.0363C12.75 16.4463 12.41 16.7863 12 16.7863Z" fill="#79747E"/>
</svg>
