<svg width="16" height="16" viewBox="0 0 16 16" fill="none" xmlns="http://www.w3.org/2000/svg">
<path d="M11.4933 15.1667H4.50667C2.64 15.1667 1.45333 14.0534 1.34667 12.1934L0.999999 6.69337C0.946665 5.86004 1.23333 5.06004 1.80667 4.45337C2.37333 3.84671 3.17333 3.50004 4 3.50004C4.21333 3.50004 4.42 3.37337 4.52 3.17337L5 2.22004C5.39333 1.44004 6.38 0.833374 7.24 0.833374H8.76667C9.62667 0.833374 10.6067 1.44004 11 2.21337L11.48 3.18671C11.58 3.37337 11.78 3.50004 12 3.50004C12.8267 3.50004 13.6267 3.84671 14.1933 4.45337C14.7667 5.06671 15.0533 5.86004 15 6.69337L14.6533 12.2C14.5333 14.0867 13.38 15.1667 11.4933 15.1667ZM7.24 1.83337C6.74667 1.83337 6.12 2.22004 5.89333 2.66671L5.41333 3.62671C5.13333 4.16671 4.59333 4.50004 4 4.50004C3.44 4.50004 2.92 4.72671 2.53333 5.13337C2.15333 5.54004 1.96 6.07337 2 6.62671L2.34667 12.1334C2.42667 13.48 3.15333 14.1667 4.50667 14.1667H11.4933C12.84 14.1667 13.5667 13.48 13.6533 12.1334L14 6.62671C14.0333 6.07337 13.8467 5.54004 13.4667 5.13337C13.08 4.72671 12.56 4.50004 12 4.50004C11.4067 4.50004 10.8667 4.16671 10.5867 3.64004L10.1 2.66671C9.88 2.22671 9.25333 1.84004 8.76 1.84004H7.24V1.83337Z" fill="#292D32"/>
<path d="M9 5.83337H7C6.72667 5.83337 6.5 5.60671 6.5 5.33337C6.5 5.06004 6.72667 4.83337 7 4.83337H9C9.27333 4.83337 9.5 5.06004 9.5 5.33337C9.5 5.60671 9.27333 5.83337 9 5.83337Z" fill="#292D32"/>
<path d="M7.99999 12.5C6.52666 12.5 5.33333 11.3066 5.33333 9.83329C5.33333 8.35996 6.52666 7.16663 7.99999 7.16663C9.47333 7.16663 10.6667 8.35996 10.6667 9.83329C10.6667 11.3066 9.47333 12.5 7.99999 12.5ZM7.99999 8.16663C7.07999 8.16663 6.33333 8.91329 6.33333 9.83329C6.33333 10.7533 7.07999 11.5 7.99999 11.5C8.92 11.5 9.66666 10.7533 9.66666 9.83329C9.66666 8.91329 8.92 8.16663 7.99999 8.16663Z" fill="#292D32"/>
</svg>
