<svg width="12" height="14" viewBox="0 0 12 14" fill="none" xmlns="http://www.w3.org/2000/svg">
<path fill-rule="evenodd" clip-rule="evenodd" d="M1.91179 0.880431C1.91179 0.675181 2.0517 0.508789 2.2243 0.508789H9.09968C9.27229 0.508789 9.4122 0.675181 9.4122 0.880431V1.25207H10.9748C11.1474 1.25207 11.2873 1.41847 11.2873 1.62372V3.85357C11.2873 4.87982 10.5877 5.71178 9.72472 5.71178H9.19881C8.75113 7.21801 7.64232 8.35286 6.28703 8.62326V10.9148H8.16213C8.33473 10.9148 8.47465 11.0812 8.47465 11.2864V13.5163C8.47465 13.7215 8.33473 13.8879 8.16213 13.8879H3.16185C2.98925 13.8879 2.84934 13.7215 2.84934 13.5163V11.2864C2.84934 11.0812 2.98925 10.9148 3.16185 10.9148H5.03696V8.62326C3.68166 8.35286 2.57285 7.21801 2.12517 5.71178H1.59927C0.736277 5.71178 0.0366821 4.87982 0.0366821 3.85357V1.62372C0.0366821 1.41847 0.176602 1.25207 0.349199 1.25207H1.91179V0.880431ZM9.4122 4.22521V1.99536H10.6623V3.85357C10.6623 4.46934 10.2425 4.9685 9.72472 4.9685H9.4122V4.22521ZM1.91179 1.99536H0.661717V3.85357C0.661717 4.46934 1.08147 4.9685 1.59927 4.9685H1.91179V4.22521V1.99536Z" fill="#FFCA28"/>
</svg>
