<svg width="24" height="25" viewBox="0 0 24 25" fill="none" xmlns="http://www.w3.org/2000/svg">
<path d="M17.8701 21.9062C17.5601 21.9062 17.2501 21.8263 16.9701 21.6562L12.9601 19.2762C12.5401 19.2662 12.1201 19.2363 11.7201 19.1763C11.4501 19.1363 11.2201 18.9562 11.1201 18.6962C11.0201 18.4362 11.0701 18.1562 11.2501 17.9462C11.9101 17.1762 12.2501 16.2562 12.2501 15.2762C12.2501 12.8562 10.1201 10.8862 7.50008 10.8862C6.52008 10.8862 5.58007 11.1563 4.79007 11.6763C4.57007 11.8163 4.30007 11.8363 4.06007 11.7263C3.83007 11.6163 3.66008 11.3962 3.63008 11.1362C3.60008 10.8562 3.58008 10.5763 3.58008 10.2863C3.58008 5.32625 7.88008 1.29626 13.1601 1.29626C18.4401 1.29626 22.7401 5.32625 22.7401 10.2863C22.7401 13.0063 21.4801 15.5062 19.2601 17.2162L19.6001 19.9363C19.6801 20.6163 19.3801 21.2563 18.8101 21.6263C18.5301 21.8063 18.2001 21.9062 17.8701 21.9062ZM13.1501 17.7662C13.2901 17.7562 13.4301 17.7963 13.5501 17.8763L17.7401 20.3663C17.8501 20.4363 17.9401 20.4063 18.0001 20.3663C18.0501 20.3363 18.1301 20.2563 18.1101 20.1163L17.7201 16.9562C17.6901 16.6762 17.8101 16.4063 18.0301 16.2463C20.0701 14.8163 21.2401 12.6362 21.2401 10.2662C21.2401 6.13624 17.6201 2.77625 13.1601 2.77625C8.87008 2.77625 5.35007 5.89628 5.09007 9.81628C5.84007 9.52628 6.65008 9.36627 7.49008 9.36627C10.9401 9.36627 13.7401 12.0062 13.7401 15.2562C13.7501 16.1362 13.5401 16.9862 13.1501 17.7662Z" fill="#79747E"/>
<path d="M4.57977 22.7863C4.31977 22.7863 4.06977 22.7163 3.83977 22.5663C3.38977 22.2763 3.14978 21.7763 3.20978 21.2463L3.40977 19.7063C2.05977 18.6063 1.25977 16.9763 1.25977 15.2663C1.25977 13.3163 2.27978 11.4963 3.98978 10.4063C5.01978 9.73631 6.23977 9.37634 7.50977 9.37634C10.9598 9.37634 13.7598 12.0163 13.7598 15.2663C13.7598 16.5863 13.2798 17.8863 12.3998 18.9163C11.2698 20.2863 9.57977 21.0863 7.71977 21.1463L5.27977 22.5963C5.05977 22.7263 4.81977 22.7863 4.57977 22.7863ZM7.49977 10.8763C6.51977 10.8763 5.57976 11.1463 4.78976 11.6663C3.50976 12.4863 2.74977 13.8263 2.74977 15.2663C2.74977 16.6563 3.42978 17.9263 4.62978 18.7463C4.85978 18.9063 4.97977 19.1763 4.94977 19.4563L4.72977 21.1663L7.11977 19.7463C7.23977 19.6763 7.36977 19.6363 7.49977 19.6363C8.96977 19.6363 10.3598 19.0063 11.2398 17.9363C11.8998 17.1563 12.2498 16.2363 12.2498 15.2563C12.2498 12.8463 10.1198 10.8763 7.49977 10.8763Z" fill="#79747E"/>
</svg>
