<svg width="19" height="19" viewBox="0 0 19 19" fill="none" xmlns="http://www.w3.org/2000/svg">
<path d="M3.03712 18.7078C2.42712 18.7078 1.85712 18.4978 1.44712 18.1078C0.927118 17.6178 0.677118 16.8778 0.767118 16.0778L1.13712 12.8378C1.20712 12.2278 1.57712 11.4178 2.00712 10.9778L10.2171 2.28779C12.2671 0.117793 14.4071 0.0577934 16.5771 2.10779C18.7471 4.15779 18.8071 6.29779 16.7571 8.46779L8.54712 17.1578C8.12712 17.6078 7.34712 18.0278 6.73712 18.1278L3.51712 18.6778C3.34712 18.6878 3.19712 18.7078 3.03712 18.7078ZM13.4271 2.09779C12.6571 2.09779 11.9871 2.57779 11.3071 3.29779L3.09712 11.9978C2.89712 12.2078 2.66712 12.7078 2.62712 12.9978L2.25712 16.2378C2.21712 16.5678 2.29712 16.8378 2.47712 17.0078C2.65712 17.1778 2.92712 17.2378 3.25712 17.1878L6.47712 16.6378C6.76712 16.5878 7.24712 16.3278 7.44712 16.1178L15.6571 7.42779C16.8971 6.10779 17.3471 4.88779 15.5371 3.18779C14.7371 2.41779 14.0471 2.09779 13.4271 2.09779Z" fill="#616161"/>
</svg>
