<svg width="54" height="57" viewBox="0 0 54 57" fill="none" xmlns="http://www.w3.org/2000/svg">
<path d="M48.8947 10.1111C48.6347 9.922 48.3435 9.79121 48.0376 9.72626C47.7318 9.66131 47.4173 9.66347 47.1122 9.73262C46.8072 9.80177 46.5174 9.93655 46.2596 10.1293C46.0019 10.322 45.7811 10.5688 45.6099 10.8557L31.2987 31.2959H21.9635L7.6551 10.8557C7.48377 10.5688 7.26286 10.322 7.00499 10.1292C6.74712 9.93651 6.45733 9.80165 6.15219 9.73238C5.84704 9.6631 5.5325 9.66076 5.22653 9.72548C4.92056 9.79021 4.62915 9.92074 4.36894 10.1096C4.10873 10.2985 3.88482 10.542 3.70998 10.8263C3.53515 11.1106 3.41282 11.43 3.34997 11.7664C3.28713 12.1028 3.28501 12.4495 3.34372 12.7868C3.40244 13.1241 3.52084 13.4453 3.69218 13.7322L17.861 37.455C18.0731 37.815 18.6732 52.0992 18.6732 52.0992H34.5807C34.5807 52.0992 35.1779 37.815 35.3928 37.455L49.5617 13.7322C49.9082 13.1543 50.0327 12.4485 49.9076 11.7696C49.7826 11.0907 49.4182 10.4942 48.8947 10.1111Z" fill="#008ABF"/>
<path d="M34.592 52.4068H18.6844C18.6104 52.4068 18.5394 52.3744 18.4871 52.3167C18.4348 52.259 18.4054 52.1807 18.4054 52.0991C18.1765 46.6199 17.7802 38.2949 17.6211 37.5812L3.46903 13.8921C3.0823 13.2447 2.94471 12.4544 3.08655 11.6951C3.22838 10.9359 3.63802 10.2698 4.22534 9.84348C4.81266 9.41715 5.52955 9.26548 6.21831 9.42184C6.90708 9.57819 7.51128 10.0298 7.89802 10.6772L22.1115 30.9821H31.1732L45.4063 10.6618C45.7944 10.0258 46.3936 9.58324 47.0748 9.42959C47.7561 9.27595 48.4648 9.42348 49.0483 9.8404C49.3391 10.0515 49.5894 10.3236 49.7848 10.6413C49.9802 10.9591 50.1169 11.3161 50.1871 11.692C50.2574 12.068 50.2597 12.4555 50.1941 12.8325C50.1285 13.2095 49.9961 13.5685 49.8046 13.8891L35.6553 37.5781C35.4962 38.2918 35.0971 46.6168 34.8682 52.0961C34.8686 52.1365 34.8618 52.1766 34.8481 52.214C34.8344 52.2515 34.8141 52.2857 34.7885 52.3145C34.7628 52.3434 34.7323 52.3664 34.6985 52.3822C34.6648 52.398 34.6286 52.4064 34.592 52.4068ZM18.9384 51.7915H34.324C34.6031 45.297 34.9631 37.6396 35.1613 37.2858L49.3385 13.563C49.6424 13.0513 49.7502 12.4279 49.6383 11.8289C49.5264 11.2299 49.2039 10.7041 48.7413 10.3665C48.5117 10.1998 48.2546 10.0846 47.9846 10.0275C47.7146 9.97032 47.437 9.97239 47.1678 10.0335C46.8985 10.0947 46.6428 10.2137 46.4153 10.3838C46.1877 10.5539 45.9928 10.7717 45.8417 11.0249L31.5193 31.4866C31.493 31.5233 31.4595 31.5529 31.4213 31.5731C31.3831 31.5934 31.3412 31.6038 31.2988 31.6035H21.9636C21.9212 31.6038 21.8793 31.5934 21.8411 31.5731C21.8029 31.5529 21.7694 31.5233 21.7431 31.4866L7.43475 11.0433C7.28948 10.7777 7.0972 10.5471 6.86937 10.3652C6.64153 10.1833 6.38282 10.0538 6.10862 9.98447C5.83443 9.91513 5.55038 9.90734 5.2734 9.96157C4.99642 10.0158 4.73218 10.1309 4.49643 10.3001C4.26067 10.4693 4.05823 10.6891 3.90116 10.9464C3.74409 11.2037 3.63561 11.4932 3.58219 11.7977C3.52877 12.1021 3.53149 12.4153 3.5902 12.7186C3.64892 13.0219 3.76241 13.3091 3.92393 13.563L18.0928 37.2858C18.3021 37.6365 18.6649 45.297 18.9384 51.7915Z" fill="#008ABF"/>
<path d="M25.1171 33.5663H28.1451V47.8597H25.1171V33.5663Z" fill="#424242"/>
<path d="M28.1451 48.1705H25.1171C25.0431 48.1705 24.9721 48.1381 24.9198 48.0804C24.8674 48.0227 24.838 47.9444 24.838 47.8628V33.5664C24.838 33.4848 24.8674 33.4065 24.9198 33.3488C24.9721 33.2911 25.0431 33.2587 25.1171 33.2587H28.1451C28.2191 33.2587 28.2901 33.2911 28.3424 33.3488C28.3948 33.4065 28.4242 33.4848 28.4242 33.5664V47.8628C28.4242 47.9444 28.3948 48.0227 28.3424 48.0804C28.2901 48.1381 28.2191 48.1705 28.1451 48.1705ZM25.3962 47.5552H27.866V33.874H25.3962V47.5552Z" fill="#424242"/>
<path d="M47.2816 7.68687V4.68421C47.2816 4.34886 47.1608 4.02724 46.9457 3.79011C46.7305 3.55299 46.4388 3.41977 46.1346 3.41977C45.8304 3.41977 45.5386 3.55299 45.3235 3.79011C45.1084 4.02724 44.9876 4.34886 44.9876 4.68421V8.47445C44.728 8.939 44.5773 9.67736 44.5773 10.8495C44.5773 14.0275 45.9225 14.5751 47.3011 14.5751C48.6798 14.5751 50.3878 13.3938 50.5552 12.4954C50.8817 10.8618 48.5654 7.81608 47.2816 7.68687Z" fill="#CC9966"/>
<path d="M47.3123 14.8828C46.023 14.8828 44.3094 14.4675 44.3094 10.8495C44.3094 9.75734 44.4406 8.95745 44.7085 8.40984V4.6842C44.7085 4.26726 44.8588 3.86739 45.1262 3.57257C45.3937 3.27774 45.7564 3.11211 46.1346 3.11211C46.5128 3.11211 46.8756 3.27774 47.143 3.57257C47.4105 3.86739 47.5607 4.26726 47.5607 4.6842V7.42844C48.398 7.67763 49.2966 8.65904 49.8631 9.5143C50.2259 10.0558 51.0492 11.431 50.8399 12.557C50.6306 13.683 48.758 14.8828 47.3123 14.8828ZM45.2667 8.42214C45.2844 8.49916 45.2744 8.58074 45.2388 8.6498C44.9876 9.09897 44.8676 9.82195 44.8676 10.8649C44.8676 13.8768 46.1039 14.2829 47.3123 14.2829C48.6463 14.2829 50.1673 13.123 50.2929 12.437C50.4045 11.8217 50.0668 10.8557 49.4138 9.88348C48.7161 8.84362 47.8091 8.03758 47.2565 7.99451C47.1869 7.98758 47.1222 7.95213 47.0752 7.89517C47.0282 7.83821 47.0023 7.76388 47.0026 7.68686V4.6842C47.0026 4.43045 46.9111 4.18708 46.7483 4.00765C46.5856 3.82822 46.3648 3.72741 46.1346 3.72741C45.9044 3.72741 45.6837 3.82822 45.5209 4.00765C45.3581 4.18708 45.2667 4.43045 45.2667 4.6842V8.42214Z" fill="#424242"/>
<path d="M49.9831 7.00697H46.3021C45.9353 7.00697 45.6379 7.33478 45.6379 7.73917V7.74225C45.6379 8.14663 45.9353 8.47445 46.3021 8.47445H49.9831C50.35 8.47445 50.6474 8.14663 50.6474 7.74225V7.73917C50.6474 7.33478 50.35 7.00697 49.9831 7.00697Z" fill="#CC9966"/>
<path d="M49.9831 8.78209H46.3049C46.1765 8.78978 46.0481 8.76855 45.9274 8.71969C45.8067 8.67083 45.6963 8.59537 45.603 8.49791C45.5096 8.40045 45.4353 8.28305 45.3845 8.15285C45.3336 8.02266 45.3074 7.88242 45.3074 7.74069C45.3074 7.59897 45.3336 7.45872 45.3845 7.32853C45.4353 7.19834 45.5096 7.08093 45.603 6.98348C45.6963 6.88602 45.8067 6.81055 45.9274 6.76169C46.0481 6.71284 46.1765 6.69161 46.3049 6.6993H49.9831C50.1115 6.69161 50.24 6.71284 50.3607 6.76169C50.4813 6.81055 50.5917 6.88602 50.6851 6.98348C50.7784 7.08093 50.8528 7.19834 50.9036 7.32853C50.9544 7.45872 50.9806 7.59897 50.9806 7.74069C50.9806 7.88242 50.9544 8.02266 50.9036 8.15285C50.8528 8.28305 50.7784 8.40045 50.6851 8.49791C50.5917 8.59537 50.4813 8.67083 50.3607 8.71969C50.24 8.76855 50.1115 8.78978 49.9831 8.78209ZM46.3049 7.3146C46.2514 7.30958 46.1975 7.31687 46.1466 7.33601C46.0958 7.35514 46.0491 7.3857 46.0096 7.42576C45.97 7.46581 45.9385 7.51449 45.9168 7.5687C45.8952 7.62291 45.8841 7.68148 45.8841 7.74069C45.8841 7.79991 45.8952 7.85847 45.9168 7.91268C45.9385 7.9669 45.97 8.01557 46.0096 8.05563C46.0491 8.09568 46.0958 8.12625 46.1466 8.14538C46.1975 8.16452 46.2514 8.1718 46.3049 8.16679H49.9831C50.0367 8.1718 50.0905 8.16452 50.1414 8.14538C50.1922 8.12625 50.2389 8.09568 50.2784 8.05563C50.318 8.01557 50.3496 7.9669 50.3712 7.91268C50.3928 7.85847 50.4039 7.79991 50.4039 7.74069C50.4039 7.68148 50.3928 7.62291 50.3712 7.5687C50.3496 7.51449 50.318 7.46581 50.2784 7.42576C50.2389 7.3857 50.1922 7.35514 50.1414 7.33601C50.0905 7.31687 50.0367 7.30958 49.9831 7.3146H46.3049Z" fill="#424242"/>
<path d="M49.9831 8.47445H46.3021C45.9353 8.47445 45.6379 8.80227 45.6379 9.20666V9.20973C45.6379 9.61412 45.9353 9.94194 46.3021 9.94194H49.9831C50.35 9.94194 50.6474 9.61412 50.6474 9.20973V9.20666C50.6474 8.80227 50.35 8.47445 49.9831 8.47445Z" fill="#CC9966"/>
<path d="M49.9831 10.2465H46.3049C46.0547 10.2465 45.8148 10.137 45.6379 9.94194C45.461 9.74693 45.3616 9.48244 45.3616 9.20665C45.3616 8.93086 45.461 8.66637 45.6379 8.47136C45.8148 8.27635 46.0547 8.16679 46.3049 8.16679H49.9831C50.2333 8.16679 50.4732 8.27635 50.6501 8.47136C50.827 8.66637 50.9264 8.93086 50.9264 9.20665C50.9264 9.48244 50.827 9.74693 50.6501 9.94194C50.4732 10.137 50.2333 10.2465 49.9831 10.2465ZM46.3049 8.78209C46.2027 8.78209 46.1048 8.82682 46.0325 8.90644C45.9603 8.98606 45.9197 9.09405 45.9197 9.20665C45.9197 9.31925 45.9603 9.42724 46.0325 9.50686C46.1048 9.58648 46.2027 9.63121 46.3049 9.63121H49.9831C50.0853 9.63121 50.1832 9.58648 50.2555 9.50686C50.3277 9.42724 50.3683 9.31925 50.3683 9.20665C50.3683 9.09405 50.3277 8.98606 50.2555 8.90644C50.1832 8.82682 50.0853 8.78209 49.9831 8.78209H46.3049Z" fill="#424242"/>
<path d="M49.9831 9.93884H46.3021C45.9353 9.93884 45.6379 10.2667 45.6379 10.671V10.6741C45.6379 11.0785 45.9353 11.4063 46.3021 11.4063H49.9831C50.35 11.4063 50.6474 11.0785 50.6474 10.6741V10.671C50.6474 10.2667 50.35 9.93884 49.9831 9.93884Z" fill="#CC9966"/>
<path d="M49.9831 11.714H46.3049C46.1765 11.7217 46.0481 11.7004 45.9274 11.6516C45.8067 11.6027 45.6963 11.5273 45.603 11.4298C45.5096 11.3323 45.4353 11.2149 45.3845 11.0847C45.3336 10.9546 45.3074 10.8143 45.3074 10.6726C45.3074 10.5309 45.3336 10.3906 45.3845 10.2604C45.4353 10.1302 45.5096 10.0128 45.603 9.91537C45.6963 9.81791 45.8067 9.74245 45.9274 9.69359C46.0481 9.64473 46.1765 9.6235 46.3049 9.63119H49.9831C50.1115 9.6235 50.24 9.64473 50.3607 9.69359C50.4813 9.74245 50.5917 9.81791 50.6851 9.91537C50.7784 10.0128 50.8528 10.1302 50.9036 10.2604C50.9544 10.3906 50.9806 10.5309 50.9806 10.6726C50.9806 10.8143 50.9544 10.9546 50.9036 11.0847C50.8528 11.2149 50.7784 11.3323 50.6851 11.4298C50.5917 11.5273 50.4813 11.6027 50.3607 11.6516C50.24 11.7004 50.1115 11.7217 49.9831 11.714ZM46.3049 10.2465C46.2514 10.2415 46.1975 10.2488 46.1466 10.2679C46.0958 10.287 46.0491 10.3176 46.0096 10.3577C45.97 10.3977 45.9385 10.4464 45.9168 10.5006C45.8952 10.5548 45.8841 10.6134 45.8841 10.6726C45.8841 10.7318 45.8952 10.7904 45.9168 10.8446C45.9385 10.8988 45.97 10.9475 46.0096 10.9875C46.0491 11.0276 46.0958 11.0581 46.1466 11.0773C46.1975 11.0964 46.2514 11.1037 46.3049 11.0987H49.9831C50.0367 11.1037 50.0905 11.0964 50.1414 11.0773C50.1922 11.0581 50.2389 11.0276 50.2784 10.9875C50.318 10.9475 50.3496 10.8988 50.3712 10.8446C50.3928 10.7904 50.4039 10.7318 50.4039 10.6726C50.4039 10.6134 50.3928 10.5548 50.3712 10.5006C50.3496 10.4464 50.318 10.3977 50.2784 10.3577C50.2389 10.3176 50.1922 10.287 50.1414 10.2679C50.0905 10.2488 50.0367 10.2415 49.9831 10.2465H46.3049Z" fill="#424242"/>
<path d="M50.1952 13.4891C50.1583 13.4889 50.1218 13.4807 50.0878 13.4649C50.0538 13.449 50.0229 13.4259 49.9971 13.3968C49.9451 13.3392 49.9159 13.2612 49.9159 13.1799C49.9159 13.0987 49.9451 13.0207 49.9971 12.963C50.2087 12.7492 50.3409 12.4566 50.3683 12.1416C50.3683 12.0282 50.3274 11.9194 50.2547 11.8392C50.1819 11.759 50.0832 11.714 49.9804 11.714H46.3049C46.2514 11.709 46.1975 11.7162 46.1466 11.7354C46.0958 11.7545 46.0491 11.7851 46.0096 11.8251C45.97 11.8652 45.9385 11.9139 45.9168 11.9681C45.8952 12.0223 45.8841 12.0809 45.8841 12.1401C45.8841 12.1993 45.8952 12.2578 45.9168 12.3121C45.9385 12.3663 45.97 12.4149 46.0096 12.455C46.0491 12.4951 46.0958 12.5256 46.1466 12.5448C46.1975 12.5639 46.2514 12.5712 46.3049 12.5662H48.451C48.525 12.5662 48.596 12.5986 48.6483 12.6563C48.7007 12.714 48.7301 12.7922 48.7301 12.8738C48.7301 12.9554 48.7007 13.0337 48.6483 13.0914C48.596 13.1491 48.525 13.1815 48.451 13.1815H46.3049C46.1765 13.1892 46.0481 13.1679 45.9274 13.1191C45.8067 13.0702 45.6963 12.9947 45.603 12.8973C45.5096 12.7998 45.4353 12.6824 45.3845 12.5522C45.3336 12.422 45.3074 12.2818 45.3074 12.1401C45.3074 11.9983 45.3336 11.8581 45.3845 11.7279C45.4353 11.5977 45.5096 11.4803 45.603 11.3829C45.6963 11.2854 45.8067 11.2099 45.9274 11.1611C46.0481 11.1122 46.1765 11.091 46.3049 11.0987H49.9831C50.2341 11.0987 50.4747 11.2086 50.6521 11.4041C50.8295 11.5997 50.9292 11.865 50.9292 12.1416C50.9062 12.622 50.7139 13.0735 50.3934 13.3999C50.3673 13.4284 50.3364 13.451 50.3024 13.4663C50.2684 13.4816 50.232 13.4893 50.1952 13.4891Z" fill="#424242"/>
<path d="M5.98069 7.68687V4.68421C5.98069 4.34886 6.10154 4.02724 6.31665 3.79011C6.53175 3.55299 6.8235 3.41977 7.12771 3.41977C7.43192 3.41977 7.72366 3.55299 7.93877 3.79011C8.15388 4.02724 8.27473 4.34886 8.27473 4.68421V8.47445C8.53427 8.939 8.68776 9.67736 8.68776 10.8495C8.68776 14.0275 7.33981 14.5751 5.96395 14.5751C4.58809 14.5751 2.88012 13.3938 2.69872 12.4954C2.39452 10.8618 4.69693 7.81608 5.98069 7.68687Z" fill="#CC9966"/>
<path d="M5.94999 14.8828C4.50436 14.8828 2.62336 13.6522 2.42242 12.557C2.22149 11.4617 3.03361 10.0558 3.3992 9.5143C3.95736 8.67134 4.87553 7.6684 5.69882 7.42844V4.6842C5.69882 4.26726 5.84907 3.86739 6.11651 3.57257C6.38395 3.27774 6.74669 3.11211 7.12491 3.11211C7.50314 3.11211 7.86587 3.27774 8.13331 3.57257C8.40076 3.86739 8.55101 4.26726 8.55101 4.6842V8.40984C8.83009 8.95745 8.95288 9.75734 8.95288 10.8495C8.95567 14.4552 7.24212 14.8828 5.94999 14.8828ZM7.12491 3.72741C7.01093 3.72741 6.89807 3.75216 6.79277 3.80024C6.68746 3.84833 6.59178 3.9188 6.51119 4.00765C6.43059 4.0965 6.36666 4.20197 6.32304 4.31806C6.27942 4.43414 6.25697 4.55855 6.25697 4.6842V7.68686C6.25726 7.76388 6.23133 7.83821 6.18431 7.89517C6.13728 7.95213 6.07259 7.98758 6.00301 7.99451C5.44485 8.04989 4.54622 8.84362 3.84573 9.88348C3.19268 10.8557 2.855 11.834 2.96942 12.437C3.09501 13.1107 4.6132 14.2829 5.94999 14.2829C7.1584 14.2829 8.39472 13.8768 8.39472 10.8649C8.39472 9.82195 8.27193 9.09897 8.02354 8.6498C8.00319 8.61339 7.98994 8.57269 7.98466 8.53031C7.97937 8.48794 7.98216 8.44481 7.99285 8.40369V4.71189C7.9962 4.58419 7.97633 4.45705 7.93439 4.33795C7.89245 4.21886 7.8293 4.11023 7.74866 4.01847C7.66802 3.92671 7.57154 3.85368 7.46489 3.8037C7.35824 3.75371 7.24359 3.72777 7.1277 3.72741H7.12491Z" fill="#424242"/>
<path d="M3.27919 8.47136H6.96024C7.32708 8.47136 7.62445 8.14354 7.62445 7.73915V7.73608C7.62445 7.33169 7.32708 7.00387 6.96024 7.00387H3.27919C2.91235 7.00387 2.61498 7.33169 2.61498 7.73608V7.73915C2.61498 8.14354 2.91235 8.47136 3.27919 8.47136Z" fill="#CC9966"/>
<path d="M6.96023 8.78209H3.27917C3.03751 8.7676 2.81007 8.65157 2.64364 8.45786C2.47721 8.26415 2.38446 8.0075 2.38446 7.7407C2.38446 7.4739 2.47721 7.21724 2.64364 7.02353C2.81007 6.82982 3.03751 6.71379 3.27917 6.6993H6.96023C7.2019 6.71379 7.42934 6.82982 7.59576 7.02353C7.76219 7.21724 7.85494 7.4739 7.85494 7.7407C7.85494 8.0075 7.76219 8.26415 7.59576 8.45786C7.42934 8.65157 7.2019 8.7676 6.96023 8.78209ZM3.27917 7.3146C3.18233 7.32368 3.09211 7.3725 3.02636 7.45141C2.96061 7.53032 2.92413 7.63356 2.92413 7.7407C2.92413 7.84784 2.96061 7.95108 3.02636 8.02998C3.09211 8.10889 3.18233 8.15771 3.27917 8.16679H6.96023C7.05707 8.15771 7.14729 8.10889 7.21304 8.02998C7.27879 7.95108 7.31528 7.84784 7.31528 7.7407C7.31528 7.63356 7.27879 7.53032 7.21304 7.45141C7.14729 7.3725 7.05707 7.32368 6.96023 7.3146H3.27917Z" fill="#424242"/>
<path d="M3.27919 9.93884H6.96024C7.32708 9.93884 7.62445 9.61102 7.62445 9.20664V9.20356C7.62445 8.79917 7.32708 8.47135 6.96024 8.47135H3.27919C2.91235 8.47135 2.61498 8.79917 2.61498 9.20356V9.20664C2.61498 9.61102 2.91235 9.93884 3.27919 9.93884Z" fill="#CC9966"/>
<path d="M6.96022 10.2465H3.27916C3.02899 10.2465 2.78906 10.137 2.61216 9.94194C2.43526 9.74693 2.33588 9.48244 2.33588 9.20665C2.33588 8.93086 2.43526 8.66637 2.61216 8.47136C2.78906 8.27635 3.02899 8.16679 3.27916 8.16679H6.96022C7.2104 8.16679 7.45033 8.27635 7.62723 8.47136C7.80413 8.66637 7.90351 8.93086 7.90351 9.20665C7.90351 9.48244 7.80413 9.74693 7.62723 9.94194C7.45033 10.137 7.2104 10.2465 6.96022 10.2465ZM3.27916 8.78209C3.17702 8.78209 3.07906 8.82682 3.00684 8.90644C2.93461 8.98606 2.89404 9.09405 2.89404 9.20665C2.89404 9.31925 2.93461 9.42724 3.00684 9.50686C3.07906 9.58648 3.17702 9.63121 3.27916 9.63121H6.96022C7.06236 9.63121 7.16032 9.58648 7.23255 9.50686C7.30478 9.42724 7.34535 9.31925 7.34535 9.20665C7.34535 9.09405 7.30478 8.98606 7.23255 8.90644C7.16032 8.82682 7.06236 8.78209 6.96022 8.78209H3.27916Z" fill="#424242"/>
<path d="M3.27919 11.4094H6.96024C7.32708 11.4094 7.62445 11.0816 7.62445 10.6772V10.6741C7.62445 10.2697 7.32708 9.94192 6.96024 9.94192H3.27919C2.91235 9.94192 2.61498 10.2697 2.61498 10.6741V10.6772C2.61498 11.0816 2.91235 11.4094 3.27919 11.4094Z" fill="#CC9966"/>
<path d="M6.96023 11.714H3.27917C3.03751 11.6995 2.81007 11.5835 2.64364 11.3898C2.47721 11.196 2.38446 10.9394 2.38446 10.6726C2.38446 10.4058 2.47721 10.1491 2.64364 9.95542C2.81007 9.76171 3.03751 9.64568 3.27917 9.6312H6.96023C7.2019 9.64568 7.42934 9.76171 7.59576 9.95542C7.76219 10.1491 7.85494 10.4058 7.85494 10.6726C7.85494 10.9394 7.76219 11.196 7.59576 11.3898C7.42934 11.5835 7.2019 11.6995 6.96023 11.714ZM3.27917 10.2465C3.18233 10.2556 3.09211 10.3044 3.02636 10.3833C2.96061 10.4622 2.92413 10.5654 2.92413 10.6726C2.92413 10.7797 2.96061 10.883 3.02636 10.9619C3.09211 11.0408 3.18233 11.0896 3.27917 11.0987H6.96023C7.05707 11.0896 7.14729 11.0408 7.21304 10.9619C7.27879 10.883 7.31528 10.7797 7.31528 10.6726C7.31528 10.5654 7.27879 10.4622 7.21304 10.3833C7.14729 10.3044 7.05707 10.2556 6.96023 10.2465H3.27917Z" fill="#424242"/>
<path d="M3.06707 13.4891C2.99385 13.4888 2.92369 13.4567 2.87171 13.3999C2.55119 13.0734 2.35894 12.622 2.33588 12.1416C2.33551 12.0048 2.35964 11.8692 2.40688 11.7427C2.45412 11.6162 2.52355 11.5012 2.61117 11.4043C2.6988 11.3074 2.80291 11.2306 2.91754 11.1781C3.03217 11.1257 3.15506 11.0987 3.27917 11.0987H6.96022C7.20189 11.1131 7.42933 11.2292 7.59576 11.4229C7.76218 11.6166 7.85494 11.8733 7.85494 12.1401C7.85494 12.4069 7.76218 12.6635 7.59576 12.8572C7.42933 13.0509 7.20189 13.167 6.96022 13.1815H4.8141C4.74009 13.1815 4.6691 13.149 4.61677 13.0913C4.56443 13.0336 4.53503 12.9554 4.53503 12.8738C4.53503 12.7922 4.56443 12.714 4.61677 12.6563C4.6691 12.5986 4.74009 12.5662 4.8141 12.5662H6.96022C7.05707 12.5571 7.14729 12.5083 7.21304 12.4293C7.27879 12.3504 7.31527 12.2472 7.31527 12.1401C7.31527 12.0329 7.27879 11.9297 7.21304 11.8508C7.14729 11.7719 7.05707 11.723 6.96022 11.714H3.27917C3.22836 11.714 3.17805 11.725 3.13114 11.7466C3.08423 11.7681 3.04165 11.7996 3.00585 11.8394C2.97005 11.8791 2.94174 11.9263 2.92255 11.9782C2.90336 12.03 2.89367 12.0856 2.89404 12.1416C2.9214 12.4566 3.05363 12.7492 3.26521 12.963C3.31719 13.0207 3.34637 13.0986 3.34637 13.1799C3.34637 13.2612 3.31719 13.3392 3.26521 13.3968C3.23937 13.4259 3.20855 13.449 3.17453 13.4648C3.14052 13.4807 3.10399 13.4889 3.06707 13.4891Z" fill="#424242"/>
<path d="M36.1994 54.5019H17.0629L14.3391 40.7746C14.2973 40.5649 14.2987 40.3477 14.3433 40.1387C14.3879 39.9298 14.4744 39.7346 14.5966 39.5675C14.7187 39.4003 14.8733 39.2656 15.049 39.1731C15.2247 39.0807 15.417 39.0329 15.6117 39.0333H37.6589C37.8534 39.0333 38.0454 39.0815 38.2207 39.1741C38.396 39.2668 38.5503 39.4016 38.6721 39.5687C38.794 39.7357 38.8803 39.9308 38.9247 40.1395C38.9691 40.3482 38.9705 40.5652 38.9288 40.7746L36.1994 54.5019Z" fill="#F05A23"/>
<path d="M36.1993 54.8095H17.0629C16.998 54.8111 16.9346 54.7877 16.8836 54.7433C16.8327 54.699 16.7974 54.6364 16.7838 54.5665L14.06 40.8391C14.0094 40.5846 14.0114 40.3208 14.0656 40.0672C14.1199 39.8136 14.2251 39.5766 14.3734 39.3738C14.5218 39.171 14.7096 39.0075 14.9229 38.8953C15.1362 38.7831 15.3697 38.7251 15.6061 38.7256H37.6533C37.8895 38.7256 38.1226 38.7839 38.3356 38.8963C38.5486 39.0086 38.736 39.1722 38.884 39.375C39.0321 39.5778 39.137 39.8146 39.1911 40.068C39.2452 40.3213 39.2471 40.5849 39.1966 40.8391L36.4728 54.5665C36.4594 54.6354 36.4249 54.6971 36.3751 54.7414C36.3253 54.7856 36.2633 54.8097 36.1993 54.8095ZM17.2861 54.1942H35.9844L38.6608 40.7099C38.6938 40.5452 38.6929 40.3745 38.658 40.2102C38.6231 40.046 38.5552 39.8925 38.4593 39.7611C38.3634 39.6297 38.2419 39.5237 38.1039 39.4509C37.9658 39.3782 37.8147 39.3406 37.6617 39.3409H15.6144C15.4613 39.34 15.3099 39.3772 15.1715 39.4498C15.0332 39.5223 14.9115 39.6283 14.8155 39.7599C14.7195 39.8915 14.6516 40.0452 14.617 40.2097C14.5823 40.3742 14.5817 40.5452 14.6153 40.7099L17.2861 54.1942Z" fill="#424242"/>
<path d="M16.9736 54.5019H36.4031V56.6923H16.9736V54.5019Z" fill="#F05A23"/>
<path d="M36.4031 57H16.9736C16.8996 57 16.8286 56.9676 16.7763 56.9099C16.7239 56.8522 16.6945 56.7739 16.6945 56.6923V54.5019C16.6945 54.4203 16.7239 54.342 16.7763 54.2843C16.8286 54.2266 16.8996 54.1942 16.9736 54.1942H36.4031C36.4771 54.1942 36.5481 54.2266 36.6004 54.2843C36.6528 54.342 36.6822 54.4203 36.6822 54.5019V56.6923C36.6822 56.7739 36.6528 56.8522 36.6004 56.9099C36.5481 56.9676 36.4771 57 36.4031 57ZM17.2527 56.3847H36.124V54.8095H17.2527V56.3847Z" fill="#424242"/>
<path d="M25.1143 33.1295H28.1842V35.0676C28.1842 35.4479 28.0472 35.8125 27.8033 36.0814C27.5594 36.3503 27.2286 36.5013 26.8837 36.5013H26.4204C26.0755 36.5013 25.7447 36.3503 25.5008 36.0814C25.2569 35.8125 25.1199 35.4479 25.1199 35.0676V33.1295H25.1143Z" fill="#CC9966"/>
<path d="M26.8809 36.8151H26.4176C25.9984 36.8143 25.5966 36.6301 25.3005 36.3031C25.0043 35.9761 24.838 35.5328 24.838 35.0707V33.1295C24.838 33.0479 24.8674 32.9696 24.9198 32.9119C24.9721 32.8542 25.0431 32.8218 25.1171 32.8218H28.187C28.261 32.8218 28.332 32.8542 28.3843 32.9119C28.4366 32.9696 28.466 33.0479 28.466 33.1295V35.0677C28.4664 35.2972 28.4257 35.5247 28.3461 35.7369C28.2666 35.949 28.1499 36.1418 28.0026 36.3042C27.8553 36.4665 27.6804 36.5952 27.4879 36.6829C27.2954 36.7706 27.0891 36.8155 26.8809 36.8151ZM25.3962 33.431V35.0677C25.3962 35.3666 25.5037 35.6533 25.6952 35.8649C25.8866 36.0766 26.1464 36.1959 26.4176 36.1967H26.8809C27.1518 36.1951 27.4112 36.0755 27.6025 35.864C27.7938 35.6526 27.9016 35.3663 27.9023 35.0677V33.4371L25.3962 33.431Z" fill="#424242"/>
<path d="M16.5745 24.3368C15.4582 23.5339 15.3494 21.5895 15.1485 20.2451C14.4584 15.6458 14.883 10.9272 16.3792 6.56701C16.4827 7.92696 16.729 9.26908 17.1132 10.5664C16.6471 8.99744 18.3467 6.25935 18.9663 4.97953C19.8035 3.23516 20.6407 1.9215 22.0585 0.613986L23.8111 5.04106C24.6395 3.58088 25.2439 1.98016 25.6 0.303261C25.5079 0.737047 30.2411 5.13028 30.3806 5.10875C30.6206 5.07491 30.9388 3.26285 30.9136 2.61679C32.8672 4.96415 34.9854 7.7453 34.6728 10.9233C35.3636 10.0941 35.8364 9.07304 36.0403 7.96989C37.3457 11.4545 37.7663 15.265 37.2571 18.993C37.0841 20.2697 36.8524 22.9924 35.9287 23.9154C35.0691 24.7676 33.1072 24.1492 32.0523 24.1861L22.5943 24.5122C20.9589 24.5676 18.5393 25.1736 16.9708 24.546C16.832 24.493 16.6991 24.4228 16.5745 24.3368Z" fill="#725858"/>
<path d="M18.7876 25.1429C18.1419 25.1611 17.4981 25.057 16.8843 24.8352C16.7252 24.7722 16.5735 24.6885 16.4322 24.586C15.355 23.8108 15.1345 22.1556 14.9559 20.8266C14.9308 20.6389 14.9084 20.4605 14.8805 20.2882C14.1784 15.633 14.6088 10.8559 16.128 6.44395C16.1506 6.37898 16.1925 6.32437 16.2468 6.28902C16.3012 6.25366 16.3648 6.23966 16.4273 6.2493C16.4898 6.25894 16.5475 6.29165 16.591 6.34209C16.6344 6.39252 16.6611 6.45771 16.6666 6.52702C16.7176 7.25886 16.8109 7.98639 16.9457 8.70517C17.3077 7.6052 17.7755 6.55112 18.3411 5.561C18.489 5.27796 18.6202 5.02261 18.7262 4.81033C19.4893 3.10111 20.5649 1.5844 21.8854 0.355565C21.9205 0.325422 21.9616 0.304949 22.0053 0.295852C22.049 0.286755 22.094 0.289297 22.1366 0.303266C22.1783 0.314426 22.2172 0.336057 22.2501 0.366473C22.283 0.396889 22.3091 0.435269 22.3264 0.478626L23.8697 4.37039C24.5392 3.07911 25.0346 1.68727 25.3404 0.238659C25.3487 0.199256 25.3638 0.162026 25.3851 0.129099C25.4064 0.0961719 25.4334 0.0681931 25.4645 0.0467634C25.4956 0.0253337 25.5302 0.0108726 25.5664 0.00420787C25.6026 -0.00245687 25.6396 -0.00119419 25.6753 0.00792228C25.7328 0.0226545 25.7846 0.0570928 25.8232 0.106289C25.8618 0.155485 25.8853 0.216907 25.8902 0.28173C26.1693 0.847805 29.4178 3.97353 30.322 4.69958C30.5133 4.0294 30.6231 3.3342 30.6485 2.63217C30.647 2.56976 30.6627 2.50832 30.6936 2.45601C30.7245 2.40369 30.7691 2.36297 30.8215 2.33927C30.8739 2.31557 30.9316 2.31 30.987 2.3233C31.0423 2.3366 31.0926 2.36814 31.1313 2.41374C32.9565 4.5919 34.8682 7.12693 34.991 10.0096C35.3753 9.37447 35.6436 8.66283 35.7808 7.91452C35.7924 7.84991 35.8226 7.79114 35.8668 7.74683C35.911 7.70253 35.9669 7.67504 36.0264 7.6684C36.0849 7.66336 36.1433 7.67878 36.1935 7.71247C36.2436 7.74616 36.2827 7.79641 36.3055 7.85606C37.6363 11.3904 38.0638 15.259 37.5418 19.0422C37.5222 19.1899 37.4999 19.3498 37.4776 19.5406C37.2934 21.0235 37.0171 23.2662 36.1241 24.1553C35.4208 24.8537 34.204 24.7122 33.1295 24.586C32.7789 24.5344 32.4256 24.5077 32.0718 24.5061L22.611 24.8322C22.1506 24.8322 21.6203 24.9091 21.0621 24.9737C20.307 25.072 19.5479 25.1285 18.7876 25.1429ZM16.2564 7.91452C15.0878 11.8835 14.8007 16.1038 15.4192 20.2205C15.4443 20.3928 15.4694 20.5774 15.4945 20.7681C15.6564 21.9772 15.8545 23.4785 16.7225 24.103C16.8286 24.1779 16.9418 24.2398 17.0601 24.2876C18.1151 24.7091 19.6416 24.5337 20.9896 24.3799C21.5477 24.3122 22.1059 24.2507 22.5775 24.2353L32.0383 23.9092C32.4182 23.9094 32.7976 23.9371 33.1742 23.9923C34.084 24.1 35.217 24.2322 35.7361 23.7154C36.4785 22.9832 36.7492 20.7866 36.9111 19.4791C36.9334 19.2945 36.9557 19.1222 36.9752 18.9745C37.4464 15.6004 37.1422 12.15 36.0906 8.93899C35.8254 9.75237 35.4155 10.4992 34.8849 11.1356C34.845 11.1832 34.7925 11.2156 34.7349 11.2283C34.6772 11.241 34.6174 11.2333 34.564 11.2064C34.5114 11.1799 34.4676 11.136 34.4387 11.0809C34.4097 11.0258 34.3969 10.9622 34.4021 10.8987C34.6812 8.09603 32.937 5.54869 31.1369 3.34592C31.0476 4.15811 30.8578 5.3641 30.4225 5.42255C29.9871 5.48101 26.267 1.67846 25.7228 1.04162C25.3485 2.51236 24.7846 3.91623 24.0483 5.21028C24.0215 5.25786 23.9834 5.29647 23.9382 5.32195C23.8929 5.34743 23.8422 5.35882 23.7915 5.35487C23.7409 5.35052 23.6924 5.33103 23.651 5.2985C23.6097 5.26597 23.5773 5.22164 23.5571 5.17028L21.9468 1.11546C20.8151 2.24786 19.8864 3.60453 19.2091 5.1149C19.103 5.33334 18.9663 5.59484 18.8128 5.88403C18.1067 7.23461 17.0294 9.28356 17.3923 10.4557C17.4121 10.5322 17.4042 10.6143 17.3703 10.6846C17.3364 10.7548 17.2791 10.8079 17.2105 10.8326C17.1418 10.8573 17.0672 10.8517 17.0022 10.817C16.9372 10.7823 16.887 10.7211 16.862 10.6464C16.5922 9.75195 16.3869 8.83539 16.248 7.90529L16.2564 7.91452Z" fill="#424242"/>
<path d="M18.6871 27.1795C20.3317 27.1795 21.6649 25.9137 21.6649 24.3522C21.6649 22.7908 20.3317 21.5249 18.6871 21.5249C17.0425 21.5249 15.7094 22.7908 15.7094 24.3522C15.7094 25.9137 17.0425 27.1795 18.6871 27.1795Z" fill="#CC9966"/>
<path d="M18.6872 27.4903C16.8899 27.4903 15.4303 26.0812 15.4303 24.3522C15.4303 22.6232 16.8899 21.2234 18.6872 21.2234C20.4844 21.2234 21.9412 22.6294 21.9412 24.3584C21.9412 26.0874 20.4816 27.4903 18.6872 27.4903ZM18.6872 21.8326C17.1997 21.8326 15.9885 22.9647 15.9885 24.3522C15.9885 25.7397 17.1997 26.875 18.6872 26.875C20.1746 26.875 21.3831 25.7428 21.3831 24.3522C21.3831 22.9617 20.183 21.8387 18.6872 21.8387V21.8326Z" fill="#424242"/>
<path d="M34.6058 27.1795C36.2504 27.1795 37.5836 25.9137 37.5836 24.3522C37.5836 22.7908 36.2504 21.5249 34.6058 21.5249C32.9612 21.5249 31.6281 22.7908 31.6281 24.3522C31.6281 25.9137 32.9612 27.1795 34.6058 27.1795Z" fill="#CC9966"/>
<path d="M34.6059 27.4903C32.8086 27.4903 31.349 26.0812 31.349 24.3522C31.349 22.6232 32.8086 21.2234 34.6059 21.2234C36.4031 21.2234 37.8599 22.6294 37.8599 24.3584C37.8599 26.0874 36.4003 27.4903 34.6059 27.4903ZM34.6059 21.8326C33.1156 21.8326 31.9072 22.9647 31.9072 24.3522C31.9072 25.7397 33.1156 26.875 34.6059 26.875C36.0961 26.875 37.3018 25.7428 37.3018 24.3522C37.3018 22.9617 36.0906 21.8387 34.6059 21.8387V21.8326Z" fill="#424242"/>
<path d="M22.4881 23.1493C22.9475 23.1493 23.3198 22.7389 23.3198 22.2325C23.3198 21.7262 22.9475 21.3157 22.4881 21.3157C22.0288 21.3157 21.6565 21.7262 21.6565 22.2325C21.6565 22.7389 22.0288 23.1493 22.4881 23.1493Z" fill="#424242"/>
<path d="M31.0643 23.1493C31.5236 23.1493 31.896 22.7389 31.896 22.2325C31.896 21.7262 31.5236 21.3157 31.0643 21.3157C30.605 21.3157 30.2327 21.7262 30.2327 22.2325C30.2327 22.7389 30.605 23.1493 31.0643 23.1493Z" fill="#424242"/>
<path d="M29.92 26.6565C29.8952 27.5958 29.5392 28.4873 28.9278 29.142C28.3163 29.7967 27.4974 30.1629 26.6451 30.1629C25.7927 30.1629 24.9738 29.7967 24.3623 29.142C23.7509 28.4873 23.3949 27.5958 23.3701 26.6565H29.92Z" fill="white"/>
<path d="M26.6465 30.5729C25.7042 30.5721 24.8007 30.1593 24.1342 29.4251C23.4676 28.6909 23.0925 27.6952 23.091 26.6565C23.091 26.5749 23.1204 26.4967 23.1727 26.439C23.2251 26.3813 23.2961 26.3489 23.3701 26.3489H29.9201C29.9941 26.3489 30.0651 26.3813 30.1174 26.439C30.1698 26.4967 30.1992 26.5749 30.1992 26.6565C30.1984 27.6949 29.8239 28.6906 29.1578 29.4249C28.4917 30.1592 27.5885 30.5721 26.6465 30.5729ZM23.6603 26.9642C23.7287 27.7847 24.0727 28.5475 24.6249 29.1029C25.1771 29.6583 25.8976 29.9662 26.6451 29.9662C27.3926 29.9662 28.1131 29.6583 28.6653 29.1029C29.2175 28.5475 29.5615 27.7847 29.6298 26.9642H23.6603Z" fill="#424242"/>
<path d="M26.6018 25.6197C26.3298 25.6197 26.0581 25.595 25.7897 25.5459C25.7174 25.5316 25.6531 25.4865 25.6107 25.4202C25.5684 25.354 25.5515 25.272 25.5637 25.1921C25.5697 25.152 25.583 25.1137 25.6026 25.0792C25.6222 25.0448 25.6477 25.015 25.6778 24.9916C25.7079 24.9681 25.742 24.9515 25.7779 24.9426C25.8139 24.9337 25.8511 24.9328 25.8874 24.9398C26.2877 25.0163 26.6965 25.0225 27.0986 24.9583C27.1349 24.6783 26.8195 23.7277 26.3981 22.8201C26.3657 22.7481 26.3602 22.665 26.3827 22.5886C26.4051 22.5122 26.4538 22.4485 26.5183 22.4111C26.5829 22.3737 26.6581 22.3657 26.7279 22.3886C26.7978 22.4116 26.8567 22.4638 26.8921 22.534C27.1851 23.1493 27.841 24.6537 27.5982 25.2475C27.5712 25.3224 27.5286 25.3893 27.4738 25.4428C27.419 25.4962 27.3536 25.5347 27.2828 25.5551C27.0589 25.6061 26.8303 25.6278 26.6018 25.6197Z" fill="#424242"/>
<path d="M20.2332 19.5283C20.16 19.5325 20.0866 19.5208 20.0174 19.4938C19.9482 19.4668 19.8845 19.4251 19.83 19.3709C19.7198 19.2616 19.6536 19.1085 19.6458 18.9453C19.638 18.7821 19.6894 18.6222 19.7886 18.5008C19.8877 18.3793 20.0266 18.3063 20.1746 18.2977L24.118 17.8393C24.2661 17.8222 24.4142 17.8706 24.5299 17.9738C24.6455 18.0771 24.7193 18.2268 24.7348 18.39C24.7503 18.5532 24.7064 18.7165 24.6128 18.844C24.5191 18.9715 24.3833 19.0528 24.2353 19.0699L20.2919 19.5252L20.2332 19.5283Z" fill="#424242"/>
<path d="M33.7686 19.9344C33.7333 19.9389 33.6977 19.9389 33.6625 19.9344L29.7554 19.1222C29.61 19.0916 29.4815 18.9986 29.3983 18.8635C29.3151 18.7285 29.2839 18.5626 29.3117 18.4023C29.3394 18.242 29.4238 18.1003 29.5463 18.0086C29.6687 17.9169 29.8193 17.8825 29.9647 17.9131L33.8718 18.7253C34.0198 18.7404 34.1564 18.8197 34.2514 18.9458C34.3464 19.0718 34.392 19.2343 34.3783 19.3975C34.3646 19.5607 34.2927 19.7112 34.1783 19.8159C34.064 19.9207 33.9166 19.971 33.7686 19.9559V19.9344Z" fill="#424242"/>
<path d="M26.6465 33.1295C24.4669 33.1287 22.3769 32.1738 20.8357 30.4749C19.2945 28.7759 18.4284 26.4719 18.4276 24.0692V15.012C20.5192 13.1607 23.0267 11.9689 25.6837 11.5632C33.0207 14.5751 34.8626 15.012 34.8626 15.012V24.0692C34.8626 26.4716 33.9971 28.7756 32.4563 30.4747C30.9156 32.1737 28.8258 33.1287 26.6465 33.1295Z" fill="#CC9966"/>
<path d="M26.6466 33.4372C24.3935 33.4347 22.2333 32.447 20.6401 30.6907C19.0469 28.9344 18.1508 26.553 18.1486 24.0692V15.012C18.1487 14.9691 18.157 14.9267 18.1728 14.8875C18.1887 14.8482 18.2118 14.8131 18.2407 14.7844C18.3551 14.6705 21.0901 11.994 25.6475 11.2587C25.6932 11.2457 25.7413 11.2457 25.787 11.2587C32.9956 14.2214 34.9018 14.6921 34.9213 14.6951C34.9848 14.7102 35.0415 14.7491 35.0817 14.8052C35.122 14.8614 35.1432 14.9313 35.1418 15.0028V24.06C35.1418 26.5448 34.2471 28.9281 32.6543 30.6863C31.0614 32.4445 28.9007 33.4339 26.6466 33.4372ZM18.7068 15.1535V24.0754C18.687 25.2384 18.8777 26.3941 19.2678 27.4749C19.6578 28.5558 20.2394 29.54 20.9785 30.3702C21.7176 31.2004 22.5994 31.8599 23.5724 32.3101C24.5454 32.7602 25.59 32.9921 26.6452 32.9921C27.7004 32.9921 28.745 32.7602 29.718 32.3101C30.6909 31.8599 31.5728 31.2004 32.3119 30.3702C33.051 29.54 33.6326 28.5558 34.0226 27.4749C34.4127 26.3941 34.6034 25.2384 34.5836 24.0754V15.252C33.9194 15.0612 31.617 14.329 25.6531 11.8678C23.1197 12.2856 20.727 13.4174 18.7068 15.1535Z" fill="#424242"/>
<path d="M24.0622 21.8387H20.917C20.485 21.8379 20.0708 21.6484 19.7654 21.3116C19.4599 20.9748 19.2879 20.5183 19.2872 20.0421V18.6177C19.2879 18.1414 19.4599 17.6849 19.7654 17.3481C20.0708 17.0114 20.485 16.8218 20.917 16.821H24.0622C24.494 16.8218 24.9078 17.0115 25.2129 17.3483C25.5179 17.6852 25.6893 18.1417 25.6893 18.6177V20.0421C25.6893 20.518 25.5179 20.9746 25.2129 21.3114C24.9078 21.6483 24.494 21.8379 24.0622 21.8387ZM20.917 17.4363C20.6328 17.4363 20.3602 17.5607 20.1592 17.7823C19.9582 18.0039 19.8453 18.3043 19.8453 18.6177V20.0421C19.8453 20.3554 19.9582 20.6559 20.1592 20.8774C20.3602 21.099 20.6328 21.2234 20.917 21.2234H24.0622C24.346 21.2226 24.6178 21.0978 24.8182 20.8763C25.0186 20.6549 25.1311 20.3549 25.1311 20.0421V18.6177C25.1311 18.3049 25.0186 18.0048 24.8182 17.7834C24.6178 17.5619 24.346 17.4371 24.0622 17.4363H20.917Z" fill="#424242"/>
<path d="M32.4179 21.8387H29.2726C28.8406 21.8379 28.4265 21.6484 28.121 21.3116C27.8155 20.9748 27.6436 20.5183 27.6428 20.0421V18.6177C27.6436 18.1414 27.8155 17.6849 28.121 17.3481C28.4265 17.0114 28.8406 16.8218 29.2726 16.821H32.4179C32.8496 16.8218 33.2635 17.0115 33.5685 17.3483C33.8736 17.6852 34.0449 18.1417 34.0449 18.6177V20.0421C34.0449 20.518 33.8736 20.9746 33.5685 21.3114C33.2635 21.6483 32.8496 21.8379 32.4179 21.8387ZM29.2726 17.4363C28.9884 17.4363 28.7158 17.5607 28.5149 17.7823C28.3139 18.0039 28.201 18.3043 28.201 18.6177V20.0421C28.201 20.3554 28.3139 20.6559 28.5149 20.8774C28.7158 21.099 28.9884 21.2234 29.2726 21.2234H32.4179C32.7016 21.2226 32.9735 21.0978 33.1738 20.8763C33.3742 20.6549 33.4867 20.3549 33.4867 20.0421V18.6177C33.4867 18.3049 33.3742 18.0048 33.1738 17.7834C32.9735 17.5619 32.7016 17.4371 32.4179 17.4363H29.2726Z" fill="#424242"/>
<path d="M27.9219 19.276C27.8589 19.2756 27.7979 19.2517 27.7488 19.2083C26.8697 18.4484 25.7813 19.2083 25.7339 19.2268C25.7029 19.2484 25.6684 19.2631 25.6323 19.27C25.5962 19.2769 25.5592 19.2759 25.5234 19.267C25.4876 19.2582 25.4538 19.2416 25.4238 19.2184C25.3939 19.1951 25.3684 19.1655 25.3488 19.1314C25.31 19.0627 25.2974 18.98 25.3136 18.9011C25.3298 18.8222 25.3735 18.7535 25.4353 18.7099C25.4939 18.6668 26.9032 17.6947 28.0949 18.7099C28.1238 18.7351 28.1478 18.7663 28.1657 18.8018C28.1836 18.8372 28.195 18.8762 28.1991 18.9166C28.2033 18.9569 28.2001 18.9977 28.1899 19.0367C28.1797 19.0757 28.1626 19.112 28.1395 19.1437C28.115 19.1828 28.0826 19.2151 28.0448 19.238C28.007 19.261 27.965 19.274 27.9219 19.276Z" fill="#424242"/>
<path d="M17.4481 21.8387C17.3925 21.8385 17.3383 21.82 17.2924 21.7856C17.2464 21.7512 17.2108 21.7024 17.1902 21.6456C17.1695 21.5888 17.1647 21.5265 17.1763 21.4666C17.1879 21.4067 17.2155 21.352 17.2555 21.3096L19.3737 19.1006C19.4284 19.0514 19.4979 19.0268 19.5683 19.0318C19.6387 19.0368 19.7047 19.071 19.7532 19.1276C19.8016 19.1841 19.8289 19.2587 19.8294 19.3365C19.8299 19.4143 19.8037 19.4894 19.7561 19.5467L17.6379 21.7556C17.5864 21.8088 17.5186 21.8384 17.4481 21.8387Z" fill="#424242"/>
<path d="M35.9259 21.8387C35.8544 21.8392 35.7855 21.8095 35.7333 21.7556L33.6151 19.5467C33.5854 19.52 33.561 19.4868 33.5435 19.4492C33.526 19.4116 33.5157 19.3704 33.5132 19.3283C33.5107 19.2861 33.5162 19.2438 33.5292 19.2041C33.5422 19.1643 33.5625 19.1279 33.5889 19.0972C33.6152 19.0665 33.647 19.0421 33.6822 19.0255C33.7175 19.0089 33.7555 19.0005 33.7938 19.0009C33.8322 19.0012 33.87 19.0102 33.9051 19.0274C33.9401 19.0445 33.9715 19.0695 33.9974 19.1006L36.1156 21.3095C36.1676 21.3672 36.1968 21.4452 36.1968 21.5264C36.1968 21.6077 36.1676 21.6857 36.1156 21.7433C36.0659 21.801 35.9979 21.8351 35.9259 21.8387Z" fill="#424242"/>
<path d="M27.2576 24.786C27.0114 24.7855 26.7664 24.7482 26.5292 24.6752C26.4617 24.6496 26.4056 24.5963 26.3726 24.5264C26.3396 24.4566 26.3322 24.3754 26.3518 24.2996C26.3715 24.2239 26.4168 24.1594 26.4784 24.1193C26.5399 24.0793 26.6131 24.0669 26.6827 24.0845C26.733 24.0845 27.9414 24.463 28.2065 23.5892C28.4214 22.8724 27.2214 21.2542 26.4148 20.402C26.3883 20.3741 26.3669 20.3407 26.352 20.3038C26.3372 20.2668 26.3291 20.227 26.3281 20.1865C26.3272 20.1461 26.3336 20.1059 26.3468 20.0682C26.36 20.0304 26.3798 19.9959 26.4051 19.9667C26.4303 19.9374 26.4606 19.9138 26.4941 19.8975C26.5277 19.8811 26.5638 19.8721 26.6005 19.8711C26.6371 19.8701 26.6736 19.8771 26.7079 19.8916C26.7421 19.9062 26.7734 19.928 26.8 19.9559C27.04 20.2082 29.1331 22.4663 28.734 23.783C28.4995 24.5645 27.8437 24.786 27.2576 24.786Z" fill="#424242"/>
<path d="M22.7618 19.9098C23.1255 19.9098 23.4204 19.5847 23.4204 19.1837C23.4204 18.7827 23.1255 18.4577 22.7618 18.4577C22.398 18.4577 22.1031 18.7827 22.1031 19.1837C22.1031 19.5847 22.398 19.9098 22.7618 19.9098Z" fill="#424242"/>
<path d="M31.0643 19.9098C31.4281 19.9098 31.723 19.5847 31.723 19.1837C31.723 18.7827 31.4281 18.4577 31.0643 18.4577C30.7006 18.4577 30.4057 18.7827 30.4057 19.1837C30.4057 19.5847 30.7006 19.9098 31.0643 19.9098Z" fill="#424242"/>
<path d="M20.2361 16.6333C20.1187 16.6329 20.0044 16.5917 19.9095 16.5155C19.8146 16.4394 19.7438 16.3322 19.7074 16.2092C19.6709 16.0862 19.6705 15.9536 19.7063 15.8304C19.7421 15.7071 19.8123 15.5995 19.9068 15.5227C20.0072 15.4427 22.4185 13.566 24.8074 14.9966C24.9377 15.0741 25.0347 15.2055 25.0771 15.3619C25.1195 15.5182 25.1038 15.6867 25.0335 15.8303C24.9631 15.9739 24.844 16.0809 24.7021 16.1276C24.5603 16.1743 24.4074 16.157 24.2772 16.0795C22.4966 15.0181 20.5794 16.5041 20.5598 16.5195C20.4653 16.5936 20.3521 16.6334 20.2361 16.6333Z" fill="#424242"/>
<path d="M32.5184 16.6364C32.402 16.6355 32.2888 16.5947 32.1946 16.5195C32.1611 16.4949 30.2411 15.0212 28.4773 16.0795C28.4128 16.1179 28.3421 16.1419 28.2691 16.1502C28.1962 16.1584 28.1225 16.1507 28.0523 16.1276C27.9821 16.1045 27.9167 16.0663 27.8598 16.0153C27.803 15.9643 27.7558 15.9014 27.721 15.8303C27.6862 15.7592 27.6644 15.6813 27.6569 15.6009C27.6494 15.5205 27.6564 15.4393 27.6774 15.3619C27.6984 15.2844 27.733 15.2123 27.7792 15.1497C27.8255 15.087 27.8825 15.035 27.947 14.9966C30.3499 13.566 32.7472 15.4427 32.8477 15.5227C32.9433 15.599 33.0146 15.7069 33.0511 15.8307C33.0877 15.9546 33.0876 16.088 33.051 16.2118C33.0144 16.3356 32.9431 16.4434 32.8474 16.5197C32.7517 16.596 32.6365 16.6368 32.5184 16.6364Z" fill="#424242"/>
<path d="M28.8066 26.0843H25.4102C25.4102 26.0843 25.8427 31.7789 27.1098 31.3143C28.3768 30.8498 28.8066 26.0843 28.8066 26.0843Z" fill="#E09999"/>
<path d="M26.9619 31.6404C26.8166 31.6396 26.6749 31.5914 26.5544 31.502C25.5358 30.7636 25.1925 26.8873 25.1339 26.112C25.1307 26.0696 25.1355 26.0269 25.148 25.9867C25.1604 25.9464 25.1804 25.9095 25.2065 25.8782C25.2322 25.8467 25.2636 25.8214 25.2987 25.8039C25.3338 25.7865 25.3717 25.7772 25.4102 25.7766H28.8066C28.8455 25.7767 28.884 25.7858 28.9196 25.8033C28.9552 25.8208 28.987 25.8463 29.0131 25.8782C29.0391 25.9101 29.0587 25.9477 29.0707 25.9885C29.0827 26.0293 29.0869 26.0724 29.0829 26.1151C28.6559 30.819 27.4391 31.5051 27.1991 31.5943C27.1229 31.6243 27.0427 31.6399 26.9619 31.6404ZM25.7172 26.3919C25.8707 28.0809 26.2753 30.5698 26.8586 30.9851C26.8805 31.0049 26.9068 31.018 26.9347 31.0228C26.9627 31.0277 26.9913 31.0242 27.0177 31.0128C27.7684 30.7329 28.2987 28.1609 28.494 26.3981L25.7172 26.3919Z" fill="#424242"/>
<path d="M52.9832 57H0.279079C0.205063 57 0.134078 56.9676 0.0817402 56.9099C0.0294027 56.8522 0 56.7739 0 56.6923C0 56.6107 0.0294027 56.5325 0.0817402 56.4748C0.134078 56.4171 0.205063 56.3847 0.279079 56.3847H52.9832C53.0572 56.3847 53.1282 56.4171 53.1806 56.4748C53.2329 56.5325 53.2623 56.6107 53.2623 56.6923C53.2623 56.7739 53.2329 56.8522 53.1806 56.9099C53.1282 56.9676 53.0572 57 52.9832 57Z" fill="#424242"/>
<path d="M26.8977 49.5333C27.9828 49.5333 28.8624 48.8019 28.8624 47.8997C28.8624 46.9975 27.9828 46.2661 26.8977 46.2661C25.8126 46.2661 24.933 46.9975 24.933 47.8997C24.933 48.8019 25.8126 49.5333 26.8977 49.5333Z" fill="#F05A23"/>
<path d="M26.8977 49.8349C25.6586 49.8349 24.665 48.9642 24.665 47.8967C24.665 46.8291 25.6697 45.9554 26.8977 45.9554C28.1256 45.9554 29.1303 46.826 29.1303 47.8967C29.1303 48.9673 28.134 49.8349 26.8977 49.8349ZM26.8977 46.5707C25.9683 46.5707 25.2232 47.1645 25.2232 47.8967C25.2232 48.6289 25.9795 49.2196 26.8977 49.2196C27.8158 49.2196 28.5721 48.6258 28.5721 47.8967C28.5721 47.1675 27.827 46.5738 26.8977 46.5738V46.5707Z" fill="#424242"/>
<path d="M26.8976 46.5738H26.8502C26.7773 46.5602 26.7123 46.5154 26.6694 46.449C26.6265 46.3827 26.6092 46.3003 26.6213 46.22C26.6464 46.0631 26.8781 44.7063 27.7376 44.5956C27.7743 44.5909 27.8114 44.5943 27.8469 44.6055C27.8824 44.6166 27.9155 44.6354 27.9444 44.6607C27.9733 44.686 27.9974 44.7173 28.0153 44.7528C28.0332 44.7884 28.0446 44.8275 28.0488 44.8679C28.053 44.9083 28.05 44.9492 28.0399 44.9883C28.0297 45.0274 28.0127 45.0639 27.9898 45.0958C27.9668 45.1276 27.9384 45.1542 27.9062 45.1739C27.8739 45.1937 27.8385 45.2062 27.8018 45.2109C27.4558 45.257 27.2437 45.9831 27.1795 46.3277C27.1664 46.3987 27.1309 46.4624 27.0793 46.5074C27.0277 46.5525 26.9634 46.576 26.8976 46.5738Z" fill="#424242"/>
<path d="M7.6244 47.8628H13.2255V54.0989C13.2255 54.7557 12.9888 55.3856 12.5675 55.8501C12.1462 56.3145 11.5748 56.5755 10.9789 56.5755H9.86262C9.26678 56.5755 8.69535 56.3145 8.27404 55.8501C7.85272 55.3856 7.61603 54.7557 7.61603 54.0989V47.8628H7.6244Z" fill="#FFBC0E"/>
<path d="M10.9735 56.8831H9.85715C9.18994 56.8823 8.55005 56.5908 8.07696 56.0721C7.60386 55.5535 7.3359 54.8497 7.33148 54.1142V47.8628C7.33148 47.7812 7.36088 47.7029 7.41322 47.6452C7.46556 47.5875 7.53654 47.5551 7.61056 47.5551H13.2117C13.2857 47.5551 13.3567 47.5875 13.409 47.6452C13.4614 47.7029 13.4908 47.7812 13.4908 47.8628V54.0988C13.4893 54.8352 13.2239 55.541 12.7524 56.0625C12.2808 56.5841 11.6414 56.879 10.9735 56.8831ZM7.9036 48.1704V54.0988C7.90728 54.6714 8.11619 55.2191 8.48478 55.6226C8.85336 56.026 9.3517 56.2524 9.87111 56.2524H10.9874C11.5071 56.2524 12.0057 56.0261 12.3747 55.6228C12.7438 55.2194 12.9533 54.6717 12.9577 54.0988V48.1704H7.9036Z" fill="#424242"/>
<path d="M7.62447 53.8681H7.56587C6.94312 53.8447 6.35298 53.5555 5.91995 53.0616C5.48692 52.5677 5.24487 51.9077 5.24487 51.2208C5.24487 50.5339 5.48692 49.8739 5.91995 49.38C6.35298 48.886 6.94312 48.5969 7.56587 48.5735H7.62447C7.69849 48.5735 7.76948 48.6059 7.82181 48.6636C7.87415 48.7213 7.90355 48.7995 7.90355 48.8811V53.5605C7.90355 53.6421 7.87415 53.7203 7.82181 53.778C7.76948 53.8357 7.69849 53.8681 7.62447 53.8681ZM7.34539 49.2195C6.89715 49.2775 6.48382 49.5149 6.18386 49.8867C5.8839 50.2584 5.71819 50.7386 5.71819 51.2362C5.71819 51.7337 5.8839 52.2139 6.18386 52.5857C6.48382 52.9574 6.89715 53.1948 7.34539 53.2528V49.2195Z" fill="#424242"/>
<path d="M51.0939 49.5303V43.6572H40.3689V49.5303H38.9539V53.1421H40.1763V56.6923H50.9013V53.0836H49.6817V49.5303H51.0939Z" fill="white"/>
<path d="M50.9013 57H40.1763C40.1023 57 40.0313 56.9676 39.979 56.9099C39.9266 56.8522 39.8972 56.774 39.8972 56.6924V53.4497H38.9539C38.8799 53.4497 38.8089 53.4173 38.7566 53.3596C38.7043 53.3019 38.6749 53.2237 38.6749 53.1421V49.5272C38.6749 49.4456 38.7043 49.3674 38.7566 49.3097C38.8089 49.252 38.8799 49.2196 38.9539 49.2196H40.0898V43.6573C40.0898 43.5757 40.1192 43.4974 40.1715 43.4397C40.2239 43.382 40.2949 43.3496 40.3689 43.3496H51.0939C51.1679 43.3496 51.2389 43.382 51.2912 43.4397C51.3436 43.4974 51.373 43.5757 51.373 43.6573V49.5272C51.373 49.6088 51.3436 49.6871 51.2912 49.7448C51.2389 49.8025 51.1679 49.8349 51.0939 49.8349H49.9608V52.7729H50.9013C50.9754 52.7729 51.0463 52.8053 51.0987 52.863C51.151 52.9207 51.1804 52.999 51.1804 53.0806V56.6893C51.1808 56.73 51.1738 56.7703 51.16 56.808C51.1461 56.8457 51.1256 56.8799 51.0997 56.9088C51.0737 56.9377 51.0428 56.9607 51.0088 56.9763C50.9747 56.992 50.9382 57 50.9013 57ZM40.4554 56.3847H50.6223V53.3913H49.6818C49.6077 53.3913 49.5368 53.3589 49.4844 53.3012C49.4321 53.2435 49.4027 53.1652 49.4027 53.0836V49.5272C49.4027 49.4456 49.4321 49.3674 49.4844 49.3097C49.5368 49.252 49.6077 49.2196 49.6818 49.2196H50.8148V43.9649H40.648V49.5272C40.648 49.6088 40.6186 49.6871 40.5662 49.7448C40.5139 49.8025 40.4429 49.8349 40.3689 49.8349H39.233V52.8314H40.1763C40.2503 52.8314 40.3213 52.8638 40.3737 52.9215C40.426 52.9792 40.4554 53.0574 40.4554 53.139V56.3847Z" fill="#424242"/>
<path d="M49.6817 53.3913H43.0061C42.9321 53.3913 42.8611 53.3589 42.8088 53.3012C42.7565 53.2435 42.7271 53.1652 42.7271 53.0836C42.7271 53.002 42.7565 52.9238 42.8088 52.8661C42.8611 52.8084 42.9321 52.776 43.0061 52.776H49.6817C49.7557 52.776 49.8267 52.8084 49.879 52.8661C49.9314 52.9238 49.9608 53.002 49.9608 53.0836C49.9608 53.1652 49.9314 53.2435 49.879 53.3012C49.8267 53.3589 49.7557 53.3913 49.6817 53.3913Z" fill="#424242"/>
<path d="M44.1838 49.8348H40.3688C40.2948 49.8348 40.2238 49.8024 40.1715 49.7447C40.1191 49.687 40.0897 49.6088 40.0897 49.5272C40.0897 49.4456 40.1191 49.3673 40.1715 49.3097C40.2238 49.252 40.2948 49.2195 40.3688 49.2195H44.1838C44.2578 49.2195 44.3288 49.252 44.3811 49.3097C44.4335 49.3673 44.4629 49.4456 44.4629 49.5272C44.4629 49.6088 44.4335 49.687 44.3811 49.7447C44.3288 49.8024 44.2578 49.8348 44.1838 49.8348Z" fill="#424242"/>
<path d="M49.6817 49.8348H46.7765C46.7024 49.8348 46.6314 49.8024 46.5791 49.7447C46.5268 49.687 46.4974 49.6088 46.4974 49.5272C46.4974 49.4456 46.5268 49.3673 46.5791 49.3097C46.6314 49.252 46.7024 49.2195 46.7765 49.2195H49.6817C49.7557 49.2195 49.8267 49.252 49.879 49.3097C49.9313 49.3673 49.9608 49.4456 49.9608 49.5272C49.9608 49.6088 49.9313 49.687 49.879 49.7447C49.8267 49.8024 49.7557 49.8348 49.6817 49.8348Z" fill="#424242"/>
<path d="M51.0939 47.4137H41.9513C41.8772 47.4137 41.8063 47.3813 41.7539 47.3236C41.7016 47.2659 41.6722 47.1876 41.6722 47.106C41.6722 47.0244 41.7016 46.9462 41.7539 46.8885C41.8063 46.8308 41.8772 46.7984 41.9513 46.7984H51.0995C51.1735 46.7984 51.2445 46.8308 51.2968 46.8885C51.3492 46.9462 51.3786 47.0244 51.3786 47.106C51.3786 47.1876 51.3492 47.2659 51.2968 47.3236C51.2445 47.3813 51.1735 47.4137 51.0995 47.4137H51.0939Z" fill="#424242"/>
<path d="M47.6025 45.5954H40.5307C40.4566 45.5954 40.3857 45.563 40.3333 45.5053C40.281 45.4476 40.2516 45.3694 40.2516 45.2878C40.2516 45.2062 40.281 45.1279 40.3333 45.0702C40.3857 45.0125 40.4566 44.9801 40.5307 44.9801H47.6025C47.6766 44.9801 47.7475 45.0125 47.7999 45.0702C47.8522 45.1279 47.8816 45.2062 47.8816 45.2878C47.8816 45.3694 47.8522 45.4476 47.7999 45.5053C47.7475 45.563 47.6766 45.5954 47.6025 45.5954Z" fill="#424242"/>
<path d="M47.3263 51.2254H39.3502C39.2762 51.2254 39.2052 51.193 39.1529 51.1353C39.1005 51.0776 39.0711 50.9994 39.0711 50.9178C39.0711 50.8362 39.1005 50.7579 39.1529 50.7002C39.2052 50.6425 39.2762 50.6101 39.3502 50.6101H47.3263C47.4003 50.6101 47.4713 50.6425 47.5236 50.7002C47.576 50.7579 47.6054 50.8362 47.6054 50.9178C47.6054 50.9994 47.576 51.0776 47.5236 51.1353C47.4713 51.193 47.4003 51.2254 47.3263 51.2254Z" fill="#424242"/>
<path d="M48.6631 54.8095H40.1763C40.1023 54.8095 40.0313 54.7771 39.979 54.7194C39.9266 54.6617 39.8972 54.5835 39.8972 54.5019C39.8972 54.4203 39.9266 54.342 39.979 54.2843C40.0313 54.2266 40.1023 54.1942 40.1763 54.1942H48.6631C48.7371 54.1942 48.8081 54.2266 48.8604 54.2843C48.9128 54.342 48.9422 54.4203 48.9422 54.5019C48.9422 54.5835 48.9128 54.6617 48.8604 54.7194C48.8081 54.7771 48.7371 54.8095 48.6631 54.8095Z" fill="#424242"/>
<path d="M5.67093 34.6277C5.59691 34.6277 5.52592 34.5953 5.47359 34.5376C5.42125 34.4799 5.39185 34.4017 5.39185 34.3201V33.2218C5.39185 33.1402 5.42125 33.0619 5.47359 33.0042C5.52592 32.9465 5.59691 32.9141 5.67093 32.9141C5.74494 32.9141 5.81593 32.9465 5.86826 33.0042C5.9206 33.0619 5.95 33.1402 5.95 33.2218V34.317C5.95037 34.3577 5.94343 34.398 5.92957 34.4357C5.91571 34.4734 5.89521 34.5076 5.86926 34.5365C5.8433 34.5654 5.81242 34.5884 5.77837 34.604C5.74433 34.6197 5.70781 34.6277 5.67093 34.6277Z" fill="#DFEAEF"/>
<path d="M5.67093 37.0028C5.59691 37.0028 5.52592 36.9704 5.47359 36.9127C5.42125 36.855 5.39185 36.7767 5.39185 36.6951V35.603C5.39185 35.5214 5.42125 35.4431 5.47359 35.3854C5.52592 35.3277 5.59691 35.2953 5.67093 35.2953C5.74494 35.2953 5.81593 35.3277 5.86826 35.3854C5.9206 35.4431 5.95 35.5214 5.95 35.603V36.6951C5.95 36.7767 5.9206 36.855 5.86826 36.9127C5.81593 36.9704 5.74494 37.0028 5.67093 37.0028Z" fill="#DFEAEF"/>
<path d="M7.2477 35.2676H6.25418C6.18016 35.2676 6.10918 35.2352 6.05684 35.1775C6.0045 35.1198 5.9751 35.0416 5.9751 34.96C5.9751 34.8784 6.0045 34.8001 6.05684 34.7424C6.10918 34.6847 6.18016 34.6523 6.25418 34.6523H7.2477C7.32172 34.6523 7.3927 34.6847 7.44504 34.7424C7.49738 34.8001 7.52678 34.8784 7.52678 34.96C7.52678 35.0416 7.49738 35.1198 7.44504 35.1775C7.3927 35.2352 7.32172 35.2676 7.2477 35.2676Z" fill="#DFEAEF"/>
<path d="M5.09037 35.2676H4.09964C4.02562 35.2676 3.95463 35.2352 3.9023 35.1775C3.84996 35.1198 3.82056 35.0416 3.82056 34.96C3.82056 34.8784 3.84996 34.8001 3.9023 34.7424C3.95463 34.6847 4.02562 34.6523 4.09964 34.6523H5.09037C5.16438 34.6523 5.23537 34.6847 5.28771 34.7424C5.34004 34.8001 5.36945 34.8784 5.36945 34.96C5.36945 35.0416 5.34004 35.1198 5.28771 35.1775C5.23537 35.2352 5.16438 35.2676 5.09037 35.2676Z" fill="#DFEAEF"/>
<path d="M46.263 35.2676C46.189 35.2676 46.118 35.2352 46.0657 35.1775C46.0133 35.1198 45.9839 35.0416 45.9839 34.96V33.8678C45.9839 33.7862 46.0133 33.708 46.0657 33.6503C46.118 33.5926 46.189 33.5602 46.263 33.5602C46.337 33.5602 46.408 33.5926 46.4604 33.6503C46.5127 33.708 46.5421 33.7862 46.5421 33.8678V34.96C46.5421 35.0416 46.5127 35.1198 46.4604 35.1775C46.408 35.2352 46.337 35.2676 46.263 35.2676Z" fill="#DFEAEF"/>
<path d="M46.263 37.6458C46.189 37.6458 46.118 37.6134 46.0657 37.5557C46.0133 37.498 45.9839 37.4198 45.9839 37.3382V36.246C45.9839 36.1644 46.0133 36.0862 46.0657 36.0285C46.118 35.9708 46.189 35.9384 46.263 35.9384C46.337 35.9384 46.408 35.9708 46.4604 36.0285C46.5127 36.0862 46.5421 36.1644 46.5421 36.246V37.3382C46.5421 37.4198 46.5127 37.498 46.4604 37.5557C46.408 37.6134 46.337 37.6458 46.263 37.6458Z" fill="#DFEAEF"/>
<path d="M47.8398 35.9106H46.8463C46.7723 35.9106 46.7013 35.8782 46.6489 35.8205C46.5966 35.7628 46.5672 35.6846 46.5672 35.603C46.5672 35.5214 46.5966 35.4431 46.6489 35.3854C46.7013 35.3277 46.7723 35.2953 46.8463 35.2953H47.8398C47.9138 35.2953 47.9848 35.3277 48.0371 35.3854C48.0895 35.4431 48.1189 35.5214 48.1189 35.603C48.1189 35.6846 48.0895 35.7628 48.0371 35.8205C47.9848 35.8782 47.9138 35.9106 47.8398 35.9106Z" fill="#DFEAEF"/>
<path d="M45.6825 35.9106H44.689C44.615 35.9106 44.544 35.8782 44.4917 35.8205C44.4393 35.7628 44.4099 35.6846 44.4099 35.603C44.4099 35.5214 44.4393 35.4431 44.4917 35.3854C44.544 35.3277 44.615 35.2953 44.689 35.2953H45.6825C45.7565 35.2953 45.8275 35.3277 45.8799 35.3854C45.9322 35.4431 45.9616 35.5214 45.9616 35.603C45.9616 35.6846 45.9322 35.7628 45.8799 35.8205C45.8275 35.8782 45.7565 35.9106 45.6825 35.9106Z" fill="#DFEAEF"/>
<path d="M48.9282 25.3121C48.8542 25.3121 48.7832 25.2797 48.7309 25.222C48.6785 25.1643 48.6491 25.086 48.6491 25.0044V24.0815C48.6491 23.9999 48.6785 23.9216 48.7309 23.864C48.7832 23.8063 48.8542 23.7738 48.9282 23.7738C49.0022 23.7738 49.0732 23.8063 49.1255 23.864C49.1779 23.9216 49.2073 23.9999 49.2073 24.0815V25.0044C49.2073 25.086 49.1779 25.1643 49.1255 25.222C49.0732 25.2797 49.0022 25.3121 48.9282 25.3121Z" fill="#DFEAEF"/>
<path d="M48.9282 27.3149C48.8542 27.3149 48.7832 27.2825 48.7309 27.2248C48.6785 27.1671 48.6491 27.0888 48.6491 27.0073V26.0843C48.6491 26.0027 48.6785 25.9245 48.7309 25.8668C48.7832 25.8091 48.8542 25.7767 48.9282 25.7767C49.0022 25.7767 49.0732 25.8091 49.1255 25.8668C49.1779 25.9245 49.2073 26.0027 49.2073 26.0843V27.0073C49.2073 27.0888 49.1779 27.1671 49.1255 27.2248C49.0732 27.2825 49.0022 27.3149 48.9282 27.3149Z" fill="#DFEAEF"/>
<path d="M50.2427 25.8536H49.4055C49.3315 25.8536 49.2605 25.8212 49.2081 25.7635C49.1558 25.7058 49.1264 25.6275 49.1264 25.5459C49.1264 25.4643 49.1558 25.3861 49.2081 25.3284C49.2605 25.2707 49.3315 25.2383 49.4055 25.2383H50.2427C50.3167 25.2383 50.3877 25.2707 50.4401 25.3284C50.4924 25.3861 50.5218 25.4643 50.5218 25.5459C50.5218 25.6275 50.4924 25.7058 50.4401 25.7635C50.3877 25.8212 50.3167 25.8536 50.2427 25.8536Z" fill="#DFEAEF"/>
<path d="M48.4258 25.8536H47.5886C47.5146 25.8536 47.4436 25.8212 47.3912 25.7635C47.3389 25.7058 47.3095 25.6275 47.3095 25.5459C47.3095 25.4643 47.3389 25.3861 47.3912 25.3284C47.4436 25.2707 47.5146 25.2383 47.5886 25.2383H48.4258C48.4998 25.2383 48.5708 25.2707 48.6232 25.3284C48.6755 25.3861 48.7049 25.4643 48.7049 25.5459C48.7049 25.6275 48.6755 25.7058 48.6232 25.7635C48.5708 25.8212 48.4998 25.8536 48.4258 25.8536Z" fill="#DFEAEF"/>
</svg>
