<svg width="24" height="25" viewBox="0 0 24 25" fill="none" xmlns="http://www.w3.org/2000/svg">
<path d="M12 22.7863C6.07 22.7863 1.25 17.9663 1.25 12.0363C1.25 6.10626 6.07 1.28625 12 1.28625C17.93 1.28625 22.75 6.10626 22.75 12.0363C22.75 17.9663 17.93 22.7863 12 22.7863ZM12 2.78625C6.9 2.78625 2.75 6.93625 2.75 12.0363C2.75 17.1363 6.9 21.2863 12 21.2863C17.1 21.2863 21.25 17.1363 21.25 12.0363C21.25 6.93625 17.1 2.78625 12 2.78625Z" fill="#79747E"/>
<path d="M8.99999 21.7863H7.99999C7.58999 21.7863 7.24999 21.4463 7.24999 21.0363C7.24999 20.6263 7.56999 20.2963 7.97999 20.2863C6.40999 14.9263 6.40999 9.14626 7.97999 3.78625C7.56999 3.77625 7.24999 3.44625 7.24999 3.03625C7.24999 2.62625 7.58999 2.28625 7.99999 2.28625H8.99999C9.23999 2.28625 9.46999 2.40625 9.60999 2.59625C9.74999 2.79625 9.78999 3.04625 9.70999 3.27625C7.82999 8.92626 7.82999 15.1463 9.70999 20.8063C9.78999 21.0363 9.74999 21.2863 9.60999 21.4863C9.46999 21.6663 9.23999 21.7863 8.99999 21.7863Z" fill="#79747E"/>
<path d="M15 21.7863C14.92 21.7863 14.84 21.7763 14.76 21.7463C14.37 21.6163 14.15 21.1863 14.29 20.7963C16.17 15.1463 16.17 8.92625 14.29 3.26625C14.16 2.87625 14.37 2.44625 14.76 2.31625C15.16 2.18625 15.58 2.39625 15.71 2.78625C17.7 8.74625 17.7 15.3063 15.71 21.2563C15.61 21.5863 15.31 21.7863 15 21.7863Z" fill="#79747E"/>
<path d="M12 17.2362C9.21 17.2362 6.43 16.8462 3.75 16.0562C3.74 16.4562 3.41 16.7862 3 16.7862C2.59 16.7862 2.25 16.4462 2.25 16.0362V15.0362C2.25 14.7962 2.37 14.5662 2.56 14.4262C2.76 14.2862 3.01 14.2462 3.24 14.3262C8.89 16.2062 15.12 16.2062 20.77 14.3262C21 14.2462 21.25 14.2862 21.45 14.4262C21.65 14.5662 21.76 14.7962 21.76 15.0362V16.0362C21.76 16.4462 21.42 16.7862 21.01 16.7862C20.6 16.7862 20.27 16.4662 20.26 16.0562C17.57 16.8462 14.79 17.2362 12 17.2362Z" fill="#79747E"/>
<path d="M21 9.78624C20.92 9.78624 20.84 9.77624 20.76 9.74624C15.11 7.86624 8.88 7.86624 3.23 9.74624C2.83 9.87624 2.41 9.66624 2.28 9.27624C2.16 8.87624 2.37 8.45624 2.76 8.32624C8.72 6.33624 15.28 6.33624 21.23 8.32624C21.62 8.45624 21.84 8.88624 21.7 9.27624C21.61 9.58624 21.31 9.78624 21 9.78624Z" fill="#79747E"/>
</svg>
