<svg width="24" height="25" viewBox="0 0 24 25" fill="none" xmlns="http://www.w3.org/2000/svg">
<path d="M12 22.8225C6.07 22.8225 1.25 18.0025 1.25 12.0725C1.25 6.14251 6.07 1.32251 12 1.32251C17.93 1.32251 22.75 6.14251 22.75 12.0725C22.75 18.0025 17.93 22.8225 12 22.8225ZM12 2.82251C6.9 2.82251 2.75 6.97251 2.75 12.0725C2.75 17.1725 6.9 21.3225 12 21.3225C17.1 21.3225 21.25 17.1725 21.25 12.0725C21.25 6.97251 17.1 2.82251 12 2.82251Z" fill="#79747E"/>
<path d="M12 13.8225C11.59 13.8225 11.25 13.4825 11.25 13.0725V8.07251C11.25 7.66251 11.59 7.32251 12 7.32251C12.41 7.32251 12.75 7.66251 12.75 8.07251V13.0725C12.75 13.4825 12.41 13.8225 12 13.8225Z" fill="#79747E"/>
<path d="M12 17.0725C11.87 17.0725 11.74 17.0425 11.62 16.9925C11.5 16.9425 11.39 16.8725 11.29 16.7825C11.2 16.6825 11.13 16.5825 11.08 16.4525C11.03 16.3325 11 16.2025 11 16.0725C11 15.9425 11.03 15.8125 11.08 15.6925C11.13 15.5725 11.2 15.4625 11.29 15.3625C11.39 15.2725 11.5 15.2025 11.62 15.1525C11.86 15.0525 12.14 15.0525 12.38 15.1525C12.5 15.2025 12.61 15.2725 12.71 15.3625C12.8 15.4625 12.87 15.5725 12.92 15.6925C12.97 15.8125 13 15.9425 13 16.0725C13 16.2025 12.97 16.3325 12.92 16.4525C12.87 16.5825 12.8 16.6825 12.71 16.7825C12.61 16.8725 12.5 16.9425 12.38 16.9925C12.26 17.0425 12.13 17.0725 12 17.0725Z" fill="#79747E"/>
</svg>
