<svg width="24" height="25" viewBox="0 0 24 25" fill="none" xmlns="http://www.w3.org/2000/svg">
<path d="M12 14.2063C9.87 14.2063 8.13 12.4763 8.13 10.3363C8.13 8.19626 9.87 6.47626 12 6.47626C14.13 6.47626 15.87 8.20626 15.87 10.3463C15.87 12.4863 14.13 14.2063 12 14.2063ZM12 7.97626C10.7 7.97626 9.63 9.03626 9.63 10.3463C9.63 11.6563 10.69 12.7163 12 12.7163C13.31 12.7163 14.37 11.6563 14.37 10.3463C14.37 9.03626 13.3 7.97626 12 7.97626Z" fill="#79747E"/>
<path d="M12 22.7963C10.52 22.7963 9.02999 22.2363 7.86999 21.1263C4.91999 18.2863 1.65999 13.7563 2.88999 8.36625C3.99999 3.47625 8.26999 1.28625 12 1.28625C12 1.28625 12 1.28625 12.01 1.28625C15.74 1.28625 20.01 3.47625 21.12 8.37626C22.34 13.7663 19.08 18.2863 16.13 21.1263C14.97 22.2363 13.48 22.7963 12 22.7963ZM12 2.78625C9.08999 2.78625 5.34999 4.33625 4.35999 8.69625C3.27999 13.4063 6.23999 17.4663 8.91999 20.0363C10.65 21.7063 13.36 21.7063 15.09 20.0363C17.76 17.4663 20.72 13.4063 19.66 8.69625C18.66 4.33625 14.91 2.78625 12 2.78625Z" fill="#79747E"/>
</svg>
