<svg width="25" height="25" viewBox="0 0 25 25" fill="none" xmlns="http://www.w3.org/2000/svg">
<path d="M8.5 22.3561C8.22 22.3561 7.92998 22.2862 7.66998 22.1462C7.09998 21.8462 6.75 21.2461 6.75 20.6061V19.1862C3.73 18.8762 1.75 16.6561 1.75 13.4761V7.4762C1.75 4.0362 4.06 1.7262 7.5 1.7262H17.5C20.94 1.7262 23.25 4.0362 23.25 7.4762V13.4761C23.25 16.9161 20.94 19.2261 17.5 19.2261H13.73L9.46997 22.0662C9.17997 22.2562 8.84 22.3561 8.5 22.3561ZM7.5 3.21619C4.92 3.21619 3.25 4.88619 3.25 7.46619V13.4662C3.25 16.0462 4.92 17.7162 7.5 17.7162C7.91 17.7162 8.25 18.0562 8.25 18.4662V20.5963C8.25 20.7263 8.33 20.7862 8.38 20.8162C8.43 20.8462 8.53001 20.8762 8.64001 20.8062L13.09 17.8463C13.21 17.7663 13.36 17.7162 13.51 17.7162H17.51C20.09 17.7162 21.76 16.0462 21.76 13.4662V7.46619C21.76 4.88619 20.09 3.21619 17.51 3.21619H7.5V3.21619Z" fill="#79747E"/>
<path d="M12.4998 12.1462C12.0898 12.1462 11.7498 11.8062 11.7498 11.3962V11.1863C11.7498 10.0263 12.5998 9.45627 12.9198 9.23627C13.2898 8.98627 13.4098 8.81627 13.4098 8.55627C13.4098 8.05627 12.9998 7.64624 12.4998 7.64624C11.9998 7.64624 11.5898 8.05627 11.5898 8.55627C11.5898 8.96627 11.2498 9.30627 10.8398 9.30627C10.4298 9.30627 10.0898 8.96627 10.0898 8.55627C10.0898 7.22627 11.1698 6.14624 12.4998 6.14624C13.8298 6.14624 14.9098 7.22627 14.9098 8.55627C14.9098 9.69627 14.0698 10.2663 13.7598 10.4763C13.3698 10.7363 13.2498 10.9063 13.2498 11.1863V11.3962C13.2498 11.8162 12.9098 12.1462 12.4998 12.1462Z" fill="#79747E"/>
<path d="M12.5 14.6362C12.08 14.6362 11.75 14.2962 11.75 13.8862C11.75 13.4762 12.09 13.1362 12.5 13.1362C12.91 13.1362 13.25 13.4762 13.25 13.8862C13.25 14.2962 12.92 14.6362 12.5 14.6362Z" fill="#79747E"/>
</svg>
