<svg width="24" height="25" viewBox="0 0 24 25" fill="none" xmlns="http://www.w3.org/2000/svg">
<path d="M11.9999 22.8325C10.9099 22.8325 9.82992 22.5125 8.97992 21.8825L4.6799 18.6725C3.5399 17.8225 2.6499 16.0525 2.6499 14.6325V7.20252C2.6499 5.66252 3.77992 4.02252 5.22992 3.48252L10.2199 1.61252C11.2099 1.24252 12.7699 1.24252 13.7599 1.61252L18.7599 3.48252C20.2099 4.02252 21.3399 5.66252 21.3399 7.20252V14.6325C21.3399 16.0525 20.4499 17.8225 19.3099 18.6725L15.0099 21.8825C14.1699 22.5125 13.0899 22.8325 11.9999 22.8325ZM10.7499 3.01252L5.75992 4.88251C4.89992 5.20251 4.1499 6.28252 4.1499 7.20252V14.6325C4.1499 15.5825 4.81992 16.9125 5.56992 17.4725L9.8699 20.6825C11.0199 21.5425 12.9699 21.5425 14.1199 20.6825L18.4199 17.4725C19.1799 16.9025 19.8399 15.5725 19.8399 14.6325V7.20252C19.8399 6.29252 19.0899 5.21251 18.2299 4.88251L13.2399 3.01252C12.5799 2.76252 11.4199 2.76252 10.7499 3.01252Z" fill="#79747E"/>
<path d="M11.9999 11.7426C11.9799 11.7426 11.9599 11.7426 11.9299 11.7426C10.4799 11.7026 9.41992 10.5926 9.41992 9.24255C9.41992 7.86255 10.5499 6.73254 11.9299 6.73254C13.3099 6.73254 14.4399 7.86255 14.4399 9.24255C14.4299 10.6026 13.3699 11.7025 12.0199 11.7525C12.0099 11.7425 12.0099 11.7426 11.9999 11.7426ZM11.9299 8.23254C11.3699 8.23254 10.9199 8.68255 10.9199 9.24255C10.9199 9.79255 11.3499 10.2325 11.8899 10.2525C11.8899 10.2525 11.9399 10.2525 11.9999 10.2525C12.5299 10.2225 12.9399 9.78255 12.9399 9.24255C12.9499 8.68255 12.4899 8.23254 11.9299 8.23254Z" fill="#79747E"/>
<path d="M11.9998 17.4225C11.1398 17.4225 10.2698 17.1925 9.59982 16.7425C8.92982 16.3025 8.5498 15.6525 8.5498 14.9625C8.5498 14.2725 8.92982 13.6225 9.59982 13.1725C10.9498 12.2725 13.0598 12.2825 14.3998 13.1725C15.0698 13.6125 15.4498 14.2625 15.4498 14.9525C15.4498 15.6425 15.0698 16.2925 14.3998 16.7425C13.7298 17.1925 12.8598 17.4225 11.9998 17.4225ZM10.4298 14.4125C10.1798 14.5725 10.0398 14.7725 10.0498 14.9525C10.0498 15.1325 10.1898 15.3325 10.4298 15.4925C11.2698 16.0525 12.7298 16.0525 13.5698 15.4925C13.8198 15.3325 13.9598 15.1325 13.9598 14.9525C13.9598 14.7725 13.8198 14.5725 13.5798 14.4125C12.7398 13.8625 11.2698 13.8625 10.4298 14.4125Z" fill="#79747E"/>
</svg>
