<svg width="18" height="18" viewBox="0 0 18 18" fill="none" xmlns="http://www.w3.org/2000/svg">
<path d="M13.6751 17.7917C13.2334 17.7917 12.6668 17.65 11.9584 17.2333L9.46676 15.7583C9.20843 15.6083 8.70843 15.6083 8.45843 15.7583L5.95843 17.2333C4.48343 18.1083 3.61676 17.7583 3.2251 17.475C2.84176 17.1917 2.24176 16.4667 2.63343 14.8L3.2251 12.2417C3.29176 11.975 3.15843 11.5167 2.95843 11.3167L0.891765 9.25C-0.141569 8.21667 -0.0582351 7.33333 0.0834315 6.9C0.225098 6.46667 0.675098 5.7 2.10843 5.45833L4.76676 5.01667C5.01676 4.975 5.3751 4.70833 5.48343 4.48333L6.95843 1.54167C7.6251 0.2 8.5001 0 8.95843 0C9.41676 0 10.2918 0.2 10.9584 1.54167L12.4251 4.475C12.5418 4.7 12.9001 4.96667 13.1501 5.00833L15.8084 5.45C17.2501 5.69167 17.7001 6.45833 17.8334 6.89167C17.9668 7.325 18.0501 8.20833 17.0251 9.24167L14.9584 11.3167C14.7584 11.5167 14.6334 11.9667 14.6918 12.2417L15.2834 14.8C15.6668 16.4667 15.0751 17.1917 14.6918 17.475C14.4834 17.625 14.1501 17.7917 13.6751 17.7917ZM8.95843 14.3917C9.36677 14.3917 9.7751 14.4917 10.1001 14.6833L12.5918 16.1583C13.3168 16.5917 13.7751 16.5917 13.9501 16.4667C14.1251 16.3417 14.2501 15.9 14.0668 15.0833L13.4751 12.525C13.3168 11.8333 13.5751 10.9417 14.0751 10.4333L16.1418 8.36667C16.5501 7.95833 16.7334 7.55833 16.6501 7.28333C16.5584 7.00833 16.1751 6.78333 15.6084 6.69167L12.9501 6.25C12.3084 6.14167 11.6084 5.625 11.3168 5.04167L9.8501 2.10833C9.58343 1.575 9.2501 1.25833 8.95843 1.25833C8.66676 1.25833 8.33343 1.575 8.0751 2.10833L6.6001 5.04167C6.30843 5.625 5.60843 6.14167 4.96676 6.25L2.31676 6.69167C1.7501 6.78333 1.36676 7.00833 1.2751 7.28333C1.18343 7.55833 1.3751 7.96667 1.78343 8.36667L3.8501 10.4333C4.3501 10.9333 4.60843 11.8333 4.4501 12.525L3.85843 15.0833C3.66676 15.9083 3.8001 16.3417 3.9751 16.4667C4.1501 16.5917 4.6001 16.5833 5.33343 16.1583L7.8251 14.6833C8.14177 14.4917 8.5501 14.3917 8.95843 14.3917Z" fill="#292D32"/>
</svg>
