<svg width="24" height="25" viewBox="0 0 24 25" fill="none" xmlns="http://www.w3.org/2000/svg">
<path d="M13 9.28625H2C1.59 9.28625 1.25 8.94625 1.25 8.53625C1.25 8.12625 1.59 7.78625 2 7.78625H13C13.41 7.78625 13.75 8.12625 13.75 8.53625C13.75 8.94625 13.41 9.28625 13 9.28625Z" fill="#79747E"/>
<path d="M8 17.2863H6C5.59 17.2863 5.25 16.9463 5.25 16.5363C5.25 16.1263 5.59 15.7863 6 15.7863H8C8.41 15.7863 8.75 16.1263 8.75 16.5363C8.75 16.9463 8.41 17.2863 8 17.2863Z" fill="#79747E"/>
<path d="M14.5 17.2863H10.5C10.09 17.2863 9.75 16.9463 9.75 16.5363C9.75 16.1263 10.09 15.7863 10.5 15.7863H14.5C14.91 15.7863 15.25 16.1263 15.25 16.5363C15.25 16.9463 14.91 17.2863 14.5 17.2863Z" fill="#79747E"/>
<path d="M17.56 21.2863H6.44C2.46 21.2863 1.25 20.0862 1.25 16.1462V7.92627C1.25 3.98627 2.46 2.78625 6.44 2.78625H13.28C13.69 2.78625 14.03 3.12625 14.03 3.53625C14.03 3.94625 13.69 4.28625 13.28 4.28625H6.44C3.3 4.28625 2.75 4.82627 2.75 7.92627V16.1462C2.75 19.2462 3.3 19.7863 6.44 19.7863H17.56C20.7 19.7863 21.25 19.2462 21.25 16.1462V11.3663C21.25 10.9563 21.59 10.6163 22 10.6163C22.41 10.6163 22.75 10.9563 22.75 11.3663V16.1462C22.75 20.0862 21.54 21.2863 17.56 21.2863Z" fill="#79747E"/>
<path d="M20.12 6.53625H17C16.59 6.53625 16.25 6.19625 16.25 5.78625V3.28625C16.25 2.87625 16.59 2.53625 17 2.53625H20.13C21.2 2.53625 22.13 3.46625 22.13 4.53625C22.12 5.63625 21.23 6.53625 20.12 6.53625ZM17.75 5.03625H20.13C20.41 5.03625 20.63 4.81625 20.63 4.53625C20.63 4.31625 20.39 4.03625 20.13 4.03625H17.75V5.03625Z" fill="#79747E"/>
<path d="M20.57 9.03625H17C16.59 9.03625 16.25 8.69625 16.25 8.28625V5.78625C16.25 5.37625 16.59 5.03625 17 5.03625H20.57C21.77 5.03625 22.75 5.93625 22.75 7.03625C22.75 8.13625 21.77 9.03625 20.57 9.03625ZM17.75 7.53625H20.57C20.94 7.53625 21.25 7.30625 21.25 7.03625C21.25 6.76625 20.94 6.53625 20.57 6.53625H17.75V7.53625Z" fill="#79747E"/>
<path d="M18.7598 10.2863C18.3498 10.2863 18.0098 9.94625 18.0098 9.53625V8.28625C18.0098 7.87625 18.3498 7.53625 18.7598 7.53625C19.1698 7.53625 19.5098 7.87625 19.5098 8.28625V9.53625C19.5098 9.95625 19.1798 10.2863 18.7598 10.2863Z" fill="#79747E"/>
<path d="M18.7598 4.03625C18.3498 4.03625 18.0098 3.69625 18.0098 3.28625V2.03625C18.0098 1.62625 18.3498 1.28625 18.7598 1.28625C19.1698 1.28625 19.5098 1.62625 19.5098 2.03625V3.28625C19.5098 3.69625 19.1798 4.03625 18.7598 4.03625Z" fill="#79747E"/>
<path d="M18.19 4.03625H16C15.59 4.03625 15.25 3.69625 15.25 3.28625C15.25 2.87625 15.59 2.53625 16 2.53625H18.19C18.6 2.53625 18.94 2.87625 18.94 3.28625C18.94 3.69625 18.6 4.03625 18.19 4.03625Z" fill="#79747E"/>
<path d="M18.19 9.03625H16C15.59 9.03625 15.25 8.69625 15.25 8.28625C15.25 7.87625 15.59 7.53625 16 7.53625H18.19C18.6 7.53625 18.94 7.87625 18.94 8.28625C18.94 8.69625 18.6 9.03625 18.19 9.03625Z" fill="#79747E"/>
</svg>
