<svg width="24" height="25" viewBox="0 0 24 25" fill="none" xmlns="http://www.w3.org/2000/svg">
<path d="M17 22.7863H7C2.59 22.7863 1.25 21.4463 1.25 17.0363V15.0363C1.25 10.6263 2.59 9.28625 7 9.28625H17C21.41 9.28625 22.75 10.6263 22.75 15.0363V17.0363C22.75 21.4463 21.41 22.7863 17 22.7863ZM7 10.7863C3.42 10.7863 2.75 11.4663 2.75 15.0363V17.0363C2.75 20.6063 3.42 21.2863 7 21.2863H17C20.58 21.2863 21.25 20.6063 21.25 17.0363V15.0363C21.25 11.4663 20.58 10.7863 17 10.7863H7Z" fill="#79747E"/>
<path d="M6 10.7863C5.59 10.7863 5.25 10.4463 5.25 10.0363V8.03625C5.25 5.13625 5.95 1.28625 12 1.28625C16.48 1.28625 18.75 3.21625 18.75 7.03625C18.75 7.44625 18.41 7.78625 18 7.78625C17.59 7.78625 17.25 7.44625 17.25 7.03625C17.25 5.05625 16.65 2.78625 12 2.78625C7.64 2.78625 6.75 4.88625 6.75 8.03625V10.0363C6.75 10.4463 6.41 10.7863 6 10.7863Z" fill="#79747E"/>
<path d="M12 19.2863C10.21 19.2863 8.75 17.8263 8.75 16.0363C8.75 14.2463 10.21 12.7863 12 12.7863C13.79 12.7863 15.25 14.2463 15.25 16.0363C15.25 17.8263 13.79 19.2863 12 19.2863ZM12 14.2863C11.04 14.2863 10.25 15.0763 10.25 16.0363C10.25 16.9963 11.04 17.7863 12 17.7863C12.96 17.7863 13.75 16.9963 13.75 16.0363C13.75 15.0763 12.96 14.2863 12 14.2863Z" fill="#79747E"/>
</svg>
